<?xml version="1.0" standalone="no"?>
<!DOCTYPE svg PUBLIC "-//W3C//DTD SVG 20010904//EN"
 "http://www.w3.org/TR/2001/REC-SVG-20010904/DTD/svg10.dtd">
<svg version="1.0" xmlns="http://www.w3.org/2000/svg"
 width="280.000000pt" height="152.000000pt" viewBox="0 0 280.000000 152.000000"
 preserveAspectRatio="xMidYMid meet">

<g transform="translate(0.000000,152.000000) scale(0.100000,-0.100000)"
fill="#000000" stroke="none">
<path d="M2790 1450 c0 -33 -39 -123 -75 -172 -39 -53 -105 -101 -179 -132
-50 -21 -66 -21 -961 -26 l-910 -5 -57 -27 c-73 -34 -142 -103 -176 -176 -27
-56 -27 -61 -33 -327 -4 -241 -7 -276 -25 -321 -53 -130 -145 -213 -276 -248
-47 -13 116 -15 1325 -15 l1377 -1 0 735 c0 404 -2 735 -5 735 -3 0 -5 -9 -5
-20z"/>
</g>
</svg>
