<svg width="64" height="65" viewBox="0 0 64 65" fill="none" xmlns="http://www.w3.org/2000/svg">
<path d="M21.5198 33.948L43.8118 55.188C44.1838 55.5426 44.6779 55.7404 45.1918 55.7404C45.7057 55.7404 46.1999 55.5426 46.5718 55.188L46.5958 55.164C46.7768 54.9921 46.9208 54.7852 47.0193 54.5558C47.1177 54.3265 47.1685 54.0795 47.1685 53.83C47.1685 53.5804 47.1177 53.3334 47.0193 53.1041C46.9208 52.8748 46.7768 52.6679 46.5958 52.496L25.6038 32.496L46.5958 12.504C46.7768 12.3321 46.9208 12.1252 47.0193 11.8958C47.1177 11.6665 47.1685 11.4195 47.1685 11.17C47.1685 10.9204 47.1177 10.6734 47.0193 10.4441C46.9208 10.2148 46.7768 10.0079 46.5958 9.83598L46.5718 9.81197C46.1999 9.45739 45.7057 9.25959 45.1918 9.25959C44.6779 9.25959 44.1838 9.45739 43.8118 9.81197L21.5198 31.052C21.3238 31.2388 21.1677 31.4634 21.061 31.7123C20.9544 31.9612 20.8994 32.2292 20.8994 32.5C20.8994 32.7708 20.9544 33.0387 21.061 33.2876C21.1677 33.5365 21.3238 33.7612 21.5198 33.948Z" fill="#0B1215" fill-opacity="0.5"/>
</svg>
