<svg width="64" height="65" viewBox="0 0 64 65" fill="none" xmlns="http://www.w3.org/2000/svg">
<path d="M42.4802 31.052L20.1882 9.81202C19.8162 9.45745 19.3221 9.25964 18.8082 9.25964C18.2943 9.25964 17.8001 9.45745 17.4282 9.81202L17.4042 9.83602C17.2232 10.0079 17.0792 10.2148 16.9807 10.4442C16.8823 10.6735 16.8315 10.9205 16.8315 11.17C16.8315 11.4196 16.8823 11.6666 16.9807 11.8959C17.0792 12.1252 17.2232 12.3321 17.4042 12.504L38.3962 32.504L17.4042 52.496C17.2232 52.6679 17.0792 52.8748 16.9807 53.1042C16.8823 53.3335 16.8315 53.5805 16.8315 53.83C16.8315 54.0796 16.8823 54.3266 16.9807 54.5559C17.0792 54.7852 17.2232 54.9921 17.4042 55.164L17.4282 55.188C17.8001 55.5426 18.2943 55.7404 18.8082 55.7404C19.3221 55.7404 19.8162 55.5426 20.1882 55.188L42.4802 33.948C42.6762 33.7612 42.8323 33.5366 42.939 33.2877C43.0456 33.0388 43.1006 32.7708 43.1006 32.5C43.1006 32.2292 43.0456 31.9613 42.939 31.7124C42.8323 31.4635 42.6762 31.2388 42.4802 31.052Z" fill="#0B1215" fill-opacity="0.5"/>
</svg>
