<svg width="347" height="53" viewBox="0 0 347 53" fill="none" xmlns="http://www.w3.org/2000/svg">
<g clip-path="url(#clip0_305_723)">
<path d="M326.542 40.9909H296.296V51.4674H327.634C334.167 51.4674 338.514 50.1636 342.257 46.7095C345.21 43.8045 347 40.1446 347 35.9357C347 30.423 343.978 26.3742 338.142 23.6979C341.955 21.4104 344.443 17.7963 344.443 13.9076C344.443 11.3 343.35 8.78377 341.397 6.72507C338.282 3.43115 333.237 1.5097 326.472 1.5097H296.319V11.9862H324.775C327.262 11.9862 328.355 12.6038 329.215 13.4273C330.006 14.205 330.447 15.1886 330.447 16.4238C330.447 17.659 329.982 18.7113 329.215 19.489C328.285 20.404 326.867 20.8615 324.775 20.8615H296.319V30.4916H326.565C328.82 30.4916 330.215 30.9491 331.47 32.1614C332.4 33.0764 332.935 34.3802 332.935 35.7527C332.935 37.2167 332.377 38.5205 331.47 39.4355C330.447 40.4191 328.82 40.9681 326.565 40.9681L326.542 40.9909Z" fill="#F8F8FF"/>
<path d="M181.405 48.7225L182.59 51.4903H197.446L173.872 1.53259H162.62L161.899 3.0423L168.107 17.4532H168.2L172.803 28.3185L172.849 28.4329L174.965 33.4195L181.405 48.7225Z" fill="#F8F8FF"/>
<path d="M249.312 23.0345H245.918V33.9456L255.612 51.4903H271.002L259.355 31.5896C265.097 28.6845 268.678 23.8809 268.678 17.7505C268.678 13.6103 267.05 9.95037 264.33 7.11395C261.052 3.75141 256.24 1.53259 248.545 1.53259H220.252V51.4903H233.852V12.3979H249.312C250.707 12.3979 252.357 12.6267 253.59 13.9305C254.52 14.9141 255.054 16.2866 255.054 17.6819C255.054 21.136 252.497 23.0345 249.312 23.0345Z" fill="#F8F8FF"/>
<path d="M78.7876 51.4903H120.913V40.2361H92.3877V40.1446H78.7876V51.4903Z" fill="#F8F8FF"/>
<path d="M161.272 32.7333L161.411 32.3901L155.041 17.5904L139.07 51.4903H153.437L154.6 48.7225L154.623 48.6081L156.622 43.8273L160.993 33.4195L161.272 32.7561V32.7333Z" fill="#F8F8FF"/>
<path d="M28.2928 53C39.4984 53 48.6581 48.1963 54.7956 42.8209L46.5658 34.243C42.0557 38.3832 35.9182 41.8144 30.0132 41.8144C20.3885 41.8144 14.158 34.8606 14.158 26.5114C14.158 18.1623 20.2258 11.2084 29.618 11.2084C34.1978 11.2084 40.3586 13.4272 45.1012 17.2473L53.2612 8.53213C46.7285 3.47688 37.2433 -0.0457764 27.9209 -0.0457764C11.3683 -2.7556e-05 0 12.1692 0 26.4657C0 40.7622 11.2753 53 28.2928 53Z" fill="#F8F8FF"/>
<path d="M92.4109 1.53259H78.7876V29.6681H92.4109V1.53259Z" fill="#F8F8FF"/>
</g>
<defs>
<clipPath id="clip0_305_723">
<rect width="347" height="53" fill="white"/>
</clipPath>
</defs>
</svg>
