<svg width="470" height="149" viewBox="0 0 470 149" fill="none" xmlns="http://www.w3.org/2000/svg">
<mask id="mask0_305_798" style="mask-type:luminance" maskUnits="userSpaceOnUse" x="33" y="115" width="23" height="23">
<path d="M42.843 115.536C36.7227 116.398 32.4157 122.156 33.3678 128.187C34.2745 134.173 39.9415 138.299 45.9712 137.392C52.137 136.44 56.1265 131.089 55.2198 124.922C54.8571 119.708 49.9608 115.4 44.3845 115.4C43.8858 115.4 43.3417 115.4 42.843 115.491" fill="white"/>
</mask>
<g mask="url(#mask0_305_798)">
<path d="M56.1263 115.446H32.4155V138.344H56.1263V115.446Z" fill="url(#paint0_linear_305_798)"/>
</g>
<mask id="mask1_305_798" style="mask-type:luminance" maskUnits="userSpaceOnUse" x="118" y="130" width="19" height="18">
<path d="M126.624 130.726C122.634 130.953 118.509 134.581 119.007 140.475C119.37 144.556 123.269 147.73 127.395 147.866H127.939C128.211 147.866 128.483 147.866 128.755 147.776C133.696 147.096 136.961 142.788 136.235 137.981C135.6 133.538 131.747 130.5 128.029 130.5C127.531 130.5 127.032 130.545 126.533 130.681" fill="white"/>
</mask>
<g mask="url(#mask1_305_798)">
<path d="M137.006 130.545H118.509V147.866H137.006V130.545Z" fill="url(#paint1_linear_305_798)"/>
</g>
<mask id="mask2_305_798" style="mask-type:luminance" maskUnits="userSpaceOnUse" x="39" y="27" width="17" height="17">
<path d="M45.9256 27.2517C41.6187 27.9319 38.8079 31.9675 39.2612 36.3658C39.7146 41.0362 44.5655 44.0743 48.3738 43.2127C52.8621 42.5326 55.9449 38.4063 55.2649 34.0079C54.6302 30.063 51.0486 27.1157 47.1044 27.1157C46.6963 27.1157 46.2883 27.1157 45.8803 27.2063" fill="white"/>
</mask>
<g mask="url(#mask2_305_798)">
<path d="M55.9447 27.161H38.8076V44.1196H55.9447V27.161Z" fill="url(#paint2_linear_305_798)"/>
</g>
<mask id="mask3_305_798" style="mask-type:luminance" maskUnits="userSpaceOnUse" x="85" y="0" width="16" height="16">
<path d="M91.7152 0C87.9523 0.589471 85.2321 3.76354 85.0508 7.39105V8.07121C85.0508 8.34328 85.0508 8.61534 85.1415 8.8874C85.7762 13.1497 89.8111 16.0971 94.0273 15.4623C98.3343 14.7821 101.19 10.8825 100.556 6.57486C100.012 3.08338 97.3369 0.498783 94.0727 0L91.7152 0Z" fill="white"/>
</mask>
<g mask="url(#mask3_305_798)">
<path d="M101.19 0H85.0508V16.1424H101.19V0Z" fill="url(#paint3_linear_305_798)"/>
</g>
<mask id="mask4_305_798" style="mask-type:luminance" maskUnits="userSpaceOnUse" x="101" y="14" width="10" height="10">
<path d="M105.135 14.238C102.913 14.6007 101.599 15.961 101.372 18.0015V19.0898C101.372 19.0898 101.372 19.3618 101.417 19.4979C101.553 22.1732 103.82 23.9416 106.676 23.5788C109.215 23.2614 110.802 20.9035 110.439 18.2736C110.077 15.7797 108.308 14.1926 105.996 14.1926C105.724 14.1926 105.407 14.1926 105.135 14.238Z" fill="white"/>
</mask>
<g mask="url(#mask4_305_798)">
<path d="M110.847 14.1473H101.372V23.8962H110.847V14.1473Z" fill="url(#paint4_linear_305_798)"/>
</g>
<mask id="mask5_305_798" style="mask-type:luminance" maskUnits="userSpaceOnUse" x="102" y="140" width="8" height="8">
<path d="M105.815 140.793C103.956 141.065 102.868 142.108 102.732 143.74V144.375C102.732 144.375 102.732 144.511 102.732 144.602C102.913 146.279 104.183 147.594 105.724 147.821H106.676C106.676 147.821 106.722 147.821 106.767 147.821C108.354 147.549 109.487 146.37 109.668 144.874V143.921C109.668 143.921 109.668 143.876 109.668 143.831C109.396 141.926 108.172 140.838 106.404 140.838C106.223 140.838 105.996 140.838 105.769 140.838" fill="white"/>
</mask>
<g mask="url(#mask5_305_798)">
<path d="M109.668 140.747H102.732V147.776H109.668V140.747Z" fill="url(#paint5_linear_305_798)"/>
</g>
<mask id="mask6_305_798" style="mask-type:luminance" maskUnits="userSpaceOnUse" x="0" y="21" width="184" height="127">
<path d="M144.078 34.8695C143.897 36.5472 143.988 38.2249 144.124 39.8573C144.26 41.8978 143.625 43.6662 141.812 44.8451C140.769 45.5253 139.545 45.7066 138.321 45.3892C126.851 32.3755 109.17 25.3019 90.7631 28.2039C65.2388 32.1942 46.8777 53.9592 46.2883 78.8984C45.0642 79.7599 43.5681 79.6692 41.8 78.5356C40.5759 77.7648 39.4425 76.9032 38.4451 75.8603C36.9037 74.3186 35.4076 72.6863 33.8209 71.1899C28.2445 65.8847 21.4441 64.5244 14.281 66.4741C6.25647 68.696 0.906797 75.4522 0.0454102 83.3421V87.8311C0.136082 88.8287 0.317427 89.8262 0.589444 90.8238C3.08293 100.845 12.4675 107.057 23.2575 105.515C29.0152 104.699 33.5488 101.661 36.7224 96.7185C38.3091 94.2246 40.1679 92.0027 42.6614 90.3704C44.4748 89.1914 45.8803 89.1914 47.2857 90.3704C51.2753 110.594 66.5082 126.011 85.3681 131.044C98.3342 135.215 111.663 133.855 125.264 126.918C128.619 125.194 131.52 122.791 134.422 120.479C135.873 119.345 137.233 118.03 139.137 117.713C141.086 117.35 142.129 117.939 142.809 119.799C143.58 121.884 143.58 124.061 143.534 126.237C143.489 128.822 143.534 131.407 144.441 133.9C147.025 141.382 152.194 145.917 159.901 147.413C167.925 148.955 174.272 145.645 179.214 139.614C182.796 135.215 183.793 129.91 182.796 124.242C180.755 112.589 168.061 105.107 156.954 109.097C155.458 109.642 153.962 110.231 152.42 110.503C146.3 111.591 145.303 110.14 146.889 104.563C147.615 102.024 148.567 99.4845 149.519 96.9906C152.148 89.8262 152.239 82.4352 151.559 75.0441C151.287 72.3235 150.697 69.6936 149.927 67.109C148.929 63.1187 147.433 59.3098 145.575 55.773C145.439 55.2742 145.348 54.7754 145.348 54.2313C145.212 52.2362 146.209 50.8758 148.204 50.3771C150.244 49.8783 152.194 50.1957 154.143 50.8305C158.495 52.2815 162.757 51.9188 166.746 49.5609C172.232 46.3415 174.998 40.1293 173.774 33.5998C172.686 27.7505 167.699 22.9894 161.714 21.9918C160.762 21.8104 159.81 21.7651 158.903 21.7651C150.652 21.7651 144.94 28.1586 144.214 34.8241" fill="white"/>
</mask>
<g mask="url(#mask6_305_798)">
<path d="M183.747 21.8558H0V149.045H183.747V21.8558Z" fill="url(#paint6_linear_305_798)"/>
</g>
<path d="M114.474 85.6092V77.1299C114.474 67.1996 109.261 62.3025 100.692 62.3025C92.1235 62.3025 86.9098 67.1996 86.9098 77.1299V85.6092H114.429H114.474ZM117.512 77.4473V101.026H114.52V88.3299H87.0005V101.026H84.0083V77.4473C84.0083 65.5672 90.6727 59.5365 100.783 59.5365C110.893 59.5365 117.557 65.5219 117.557 77.4473" fill="#F8F8FF"/>
<path d="M187.42 84.8838C196.26 84.8838 200.975 80.7575 200.975 73.6838C200.975 66.6102 196.26 62.4839 187.42 62.4839H175.632V84.8384H187.42V84.8838ZM201.247 101.026L191.409 87.2416C190.095 87.423 188.825 87.5137 187.42 87.5137H175.632V100.981H172.64V59.7632H187.42C197.756 59.7632 204.013 64.9324 204.013 73.6385C204.013 80.168 200.477 84.7024 194.356 86.5161L204.647 100.935H201.247V101.026Z" fill="#F8F8FF"/>
<path d="M286.343 85.6092V77.1299C286.343 67.1996 281.13 62.3025 272.561 62.3025C263.993 62.3025 258.779 67.1996 258.779 77.1299V85.6092H286.298H286.343ZM289.335 77.4473V101.026H286.343V88.3299H258.824V101.026H255.832V77.4473C255.832 65.5672 262.496 59.5365 272.606 59.5365C282.716 59.5365 289.381 65.5219 289.381 77.4473" fill="#F8F8FF"/>
<path d="M373.887 80.6214H376.789V101.026H374.069V96.8999C370.578 99.8926 365.999 101.298 361.193 101.298C350.585 101.298 340.52 93.8618 340.52 80.44C340.52 68.3785 349.633 59.4911 362.1 59.4911C368.039 59.4911 373.298 61.3502 376.925 65.1591L375.021 67.1543C371.439 63.6174 367.132 62.2571 362.145 62.2571C351.446 62.2571 343.467 70.0109 343.467 80.44C343.467 91.9574 352.171 98.5776 361.284 98.5776C365.772 98.5776 370.351 97.0359 373.797 93.6351V80.5761L373.887 80.6214Z" fill="#F8F8FF"/>
<path d="M466.917 80.44C466.917 70.0109 459.029 62.3025 448.556 62.3025C438.083 62.3025 430.149 70.0109 430.149 80.44C430.149 90.8691 438.038 98.5776 448.556 98.5776C459.074 98.5776 466.917 90.8691 466.917 80.44ZM427.157 80.44C427.157 68.5146 436.27 59.5365 448.556 59.5365C460.842 59.5365 469.955 68.4239 469.955 80.44C469.955 92.4562 460.751 101.344 448.556 101.344C436.36 101.344 427.157 92.4108 427.157 80.44Z" fill="#F8F8FF"/>
<path d="M199.343 119.073C200.341 119.073 201.111 118.846 201.655 118.393C202.199 117.939 202.426 117.305 202.426 116.534C202.426 115.718 202.154 115.083 201.61 114.629C201.066 114.176 200.295 113.995 199.389 113.995H197.212V119.073H199.389H199.343ZM199.343 113.133C200.613 113.133 201.565 113.405 202.245 114.04C202.925 114.629 203.287 115.491 203.287 116.534C203.287 117.577 202.925 118.393 202.245 119.028C201.565 119.617 200.567 119.935 199.343 119.935H197.167V123.97H196.306V113.178H199.389L199.343 113.133Z" fill="#F8F8FF"/>
<path d="M208.365 118.982C209.362 118.982 210.088 118.756 210.632 118.302C211.131 117.849 211.403 117.259 211.403 116.488C211.403 115.672 211.131 115.083 210.587 114.629C210.043 114.176 209.317 113.995 208.365 113.995H206.144V118.982H208.365ZM211.629 123.97L209.045 119.753C208.818 119.753 208.546 119.753 208.32 119.753H206.144V123.925H205.282V113.133H208.365C209 113.133 209.544 113.224 210.043 113.36C210.541 113.496 210.949 113.722 211.312 114.04C211.629 114.357 211.901 114.675 212.083 115.128C212.264 115.536 212.355 116.035 212.355 116.534C212.355 117.305 212.173 117.985 211.72 118.529C211.312 119.073 210.723 119.436 209.997 119.663L212.672 124.061H211.675L211.629 123.97Z" fill="#F8F8FF"/>
<path d="M214.984 118.574C214.984 119.254 215.12 119.935 215.347 120.524C215.574 121.114 215.936 121.612 216.344 122.02C216.752 122.428 217.251 122.746 217.84 122.973C218.43 123.199 219.019 123.335 219.699 123.335C220.379 123.335 220.969 123.199 221.558 122.973C222.147 122.746 222.646 122.428 223.054 121.975C223.462 121.567 223.825 121.068 224.052 120.479C224.278 119.889 224.414 119.254 224.414 118.529C224.414 117.803 224.278 117.169 224.052 116.579C223.825 115.99 223.462 115.491 223.054 115.083C222.646 114.675 222.147 114.357 221.558 114.131C220.969 113.904 220.379 113.768 219.699 113.768C219.019 113.768 218.43 113.858 217.84 114.085C217.251 114.312 216.752 114.629 216.344 115.083C215.936 115.491 215.619 115.99 215.347 116.579C215.12 117.169 214.984 117.803 214.984 118.529V118.574ZM214.032 118.62C214.032 117.803 214.168 117.033 214.486 116.352C214.803 115.672 215.166 115.037 215.71 114.584C216.208 114.085 216.843 113.722 217.523 113.405C218.203 113.133 218.929 112.997 219.699 112.997C220.47 112.997 221.195 113.133 221.875 113.405C222.555 113.677 223.145 114.085 223.644 114.584C224.142 115.083 224.55 115.672 224.868 116.352C225.185 117.033 225.321 117.803 225.321 118.62C225.321 119.436 225.185 120.207 224.913 120.887C224.596 121.567 224.233 122.156 223.689 122.655C223.19 123.154 222.555 123.517 221.921 123.834C221.241 124.106 220.515 124.242 219.745 124.242C218.974 124.242 218.249 124.106 217.568 123.834C216.888 123.562 216.299 123.154 215.8 122.655C215.302 122.156 214.894 121.567 214.622 120.887C214.304 120.207 214.168 119.436 214.168 118.62H214.123H214.032Z" fill="#F8F8FF"/>
<path d="M232.121 123.109C232.711 123.109 233.3 123.018 233.889 122.837C234.434 122.61 234.932 122.338 235.34 121.93C235.748 121.567 236.111 121.068 236.338 120.524C236.564 119.98 236.7 119.345 236.7 118.665C236.7 117.985 236.564 117.305 236.338 116.715C236.111 116.126 235.748 115.672 235.34 115.264C234.887 114.856 234.434 114.539 233.844 114.357C233.3 114.131 232.665 114.04 232.031 114.04H228.404V123.154H232.121V123.109ZM231.985 113.133C232.756 113.133 233.481 113.314 234.161 113.586C234.842 113.858 235.431 114.221 235.93 114.675C236.428 115.173 236.836 115.718 237.108 116.398C237.426 117.078 237.562 117.803 237.562 118.62C237.562 119.436 237.426 120.116 237.154 120.796C236.836 121.476 236.474 122.02 235.975 122.474C235.476 122.927 234.887 123.29 234.252 123.562C233.572 123.834 232.892 123.925 232.121 123.925H227.497V113.133H231.985Z" fill="#F8F8FF"/>
<path d="M248.17 113.133V119.572C248.17 121.068 247.807 122.202 247.082 123.018C246.356 123.789 245.268 124.197 243.863 124.197C242.458 124.197 241.37 123.789 240.599 123.018C239.873 122.247 239.511 121.068 239.511 119.572V113.133H240.372V119.572C240.372 122.066 241.506 123.29 243.818 123.29C246.13 123.29 247.263 122.02 247.263 119.572V113.133H248.17Z" fill="#F8F8FF"/>
<path d="M259.64 115.99H259.55C259.142 115.355 258.598 114.811 257.872 114.448C257.147 114.04 256.376 113.858 255.515 113.858C254.835 113.858 254.245 113.949 253.656 114.221C253.067 114.448 252.568 114.765 252.16 115.173C251.752 115.582 251.435 116.08 251.162 116.67C250.936 117.259 250.8 117.894 250.8 118.62C250.8 119.345 250.936 119.935 251.162 120.524C251.389 121.113 251.752 121.612 252.16 122.02C252.568 122.428 253.067 122.746 253.656 123.018C254.245 123.245 254.835 123.335 255.515 123.335C256.421 123.335 257.283 123.109 258.008 122.655C258.734 122.202 259.323 121.612 259.731 120.841L260.592 121.068C260.366 121.567 260.094 121.975 259.731 122.383C259.414 122.791 259.006 123.109 258.552 123.335C258.099 123.607 257.646 123.789 257.147 123.925C256.648 124.061 256.104 124.152 255.515 124.152C254.744 124.152 254.019 124.016 253.339 123.743C252.659 123.471 252.069 123.063 251.571 122.564C251.072 122.066 250.664 121.476 250.346 120.796C250.029 120.116 249.893 119.345 249.893 118.529C249.893 117.713 250.074 116.942 250.346 116.262C250.618 115.582 251.026 114.947 251.525 114.448C252.024 113.949 252.613 113.586 253.339 113.269C254.019 112.997 254.744 112.861 255.515 112.861C256.059 112.861 256.557 112.906 257.056 113.042C257.555 113.178 258.008 113.36 258.416 113.632C258.824 113.858 259.232 114.176 259.55 114.493C259.912 114.856 260.184 115.219 260.411 115.672L259.504 115.899L259.64 115.99Z" fill="#F8F8FF"/>
<path d="M269.705 123.109V123.97H262.587V113.133H269.614V113.995H263.494V117.758H268.435V118.574H263.494V123.109H269.705Z" fill="#F8F8FF"/>
<path d="M280.767 113.133V124.016H279.951L274.42 116.624C273.966 115.99 273.604 115.491 273.377 115.173C273.15 114.856 273.014 114.675 273.014 114.675V124.016H272.153V113.224H272.969L278.455 120.615C278.863 121.204 279.225 121.658 279.452 122.02C279.679 122.383 279.86 122.565 279.86 122.565V122.338C279.86 122.338 279.86 121.975 279.86 121.748C279.86 121.522 279.86 121.204 279.86 120.887V113.269H280.767V113.133Z" fill="#F8F8FF"/>
<path d="M290.922 113.133V113.995H287.25V123.97H286.343V113.995H282.625V113.133H290.922Z" fill="#F8F8FF"/>
<path d="M305.52 115.99H305.43C305.022 115.355 304.478 114.811 303.752 114.448C303.027 114.04 302.256 113.858 301.395 113.858C300.715 113.858 300.125 113.949 299.536 114.221C298.946 114.448 298.448 114.765 298.04 115.173C297.632 115.582 297.314 116.08 297.042 116.67C296.816 117.259 296.68 117.894 296.68 118.62C296.68 119.345 296.816 119.935 297.042 120.524C297.269 121.113 297.632 121.612 298.04 122.02C298.448 122.428 298.946 122.746 299.536 123.018C300.125 123.245 300.715 123.335 301.395 123.335C302.301 123.335 303.163 123.109 303.888 122.655C304.614 122.202 305.203 121.612 305.611 120.841L306.472 121.068C306.246 121.567 305.974 121.975 305.611 122.383C305.294 122.791 304.886 123.109 304.432 123.335C303.979 123.607 303.525 123.789 303.027 123.925C302.528 124.061 301.984 124.152 301.395 124.152C300.624 124.152 299.899 124.016 299.219 123.743C298.538 123.471 297.949 123.063 297.45 122.564C296.952 122.066 296.544 121.476 296.226 120.796C295.909 120.116 295.773 119.345 295.773 118.529C295.773 117.713 295.954 116.942 296.226 116.262C296.498 115.582 296.906 114.947 297.405 114.448C297.904 113.949 298.493 113.586 299.219 113.269C299.899 112.997 300.624 112.861 301.395 112.861C301.939 112.861 302.437 112.906 302.936 113.042C303.435 113.178 303.888 113.36 304.296 113.632C304.704 113.858 305.112 114.176 305.43 114.493C305.792 114.856 306.064 115.219 306.291 115.672L305.384 115.899L305.52 115.99Z" fill="#F8F8FF"/>
<path d="M316.673 113.133V123.97H315.766V118.71H309.329V123.97H308.467V113.133H309.329V117.894H315.766V113.133H316.673Z" fill="#F8F8FF"/>
<path d="M326.783 123.109V123.97H319.666V113.133H326.693V113.995H320.527V117.758H325.514V118.574H320.527V123.109H326.783Z" fill="#F8F8FF"/>
<path d="M338.933 113.133V124.016H338.026V118.529C338.026 118.166 338.026 117.758 338.026 117.305C338.026 116.851 338.026 116.443 338.026 116.035C338.026 115.627 338.026 115.309 338.026 115.083V114.675L337.936 114.811C337.936 114.811 337.8 115.037 337.709 115.173C337.618 115.309 337.528 115.491 337.437 115.718C337.301 115.899 337.21 116.126 337.12 116.307L334.264 121.295H333.81L330.909 116.307C330.909 116.307 330.682 115.899 330.591 115.718C330.501 115.491 330.41 115.355 330.319 115.173C330.229 115.037 330.138 114.901 330.093 114.811L330.002 114.675V115.083C330.002 115.355 330.002 115.672 330.002 116.08C330.002 116.488 330.002 116.897 330.002 117.35C330.002 117.803 330.002 118.212 330.002 118.574V124.061H329.095V113.269H329.911L332.767 118.212C332.994 118.62 333.221 118.982 333.357 119.254C333.493 119.526 333.629 119.753 333.72 119.935C333.81 120.116 333.856 120.207 333.901 120.252L333.992 120.343V120.252C333.992 120.252 334.128 120.071 334.218 119.889C334.309 119.708 334.445 119.481 334.581 119.209C334.717 118.937 334.944 118.574 335.17 118.166L338.026 113.224H338.842L338.933 113.133Z" fill="#F8F8FF"/>
<path d="M342.832 113.133H341.971V123.925H342.832V113.133Z" fill="#F8F8FF"/>
<path d="M346.731 113.133H345.87V123.925H346.731V113.133Z" fill="#F8F8FF"/>
<path d="M357.793 123.154C358.156 123.154 358.518 123.109 358.836 123.018C359.153 122.927 359.425 122.746 359.652 122.565C359.879 122.383 360.06 122.111 360.196 121.839C360.332 121.567 360.377 121.204 360.377 120.841C360.377 120.524 360.287 120.207 360.151 119.889C360.015 119.572 359.788 119.345 359.561 119.164C359.334 118.982 359.017 118.801 358.7 118.665C358.382 118.529 358.065 118.484 357.657 118.484H354.484V123.199H357.793V123.154ZM357.294 117.713C357.657 117.713 357.974 117.713 358.292 117.577C358.609 117.486 358.836 117.35 359.017 117.169C359.198 116.987 359.38 116.806 359.471 116.579C359.607 116.352 359.652 116.08 359.652 115.854C359.652 115.31 359.425 114.811 359.017 114.493C358.609 114.176 358.02 113.995 357.294 113.995H354.484V117.758H357.294V117.713ZM357.476 113.178C357.929 113.178 358.382 113.178 358.745 113.314C359.153 113.45 359.47 113.632 359.697 113.859C359.969 114.085 360.196 114.357 360.332 114.675C360.468 114.992 360.559 115.355 360.559 115.763C360.559 116.035 360.513 116.307 360.377 116.534C360.241 116.761 360.105 117.033 359.924 117.214C359.743 117.395 359.561 117.577 359.335 117.713C359.108 117.849 358.881 117.894 358.654 117.939C358.926 117.985 359.198 118.075 359.516 118.212C359.833 118.348 360.105 118.529 360.377 118.756C360.649 118.982 360.876 119.3 361.057 119.663C361.239 119.98 361.329 120.388 361.329 120.796C361.329 121.295 361.239 121.703 361.103 122.111C360.921 122.474 360.695 122.837 360.423 123.109C360.151 123.381 359.743 123.607 359.335 123.743C358.926 123.88 358.428 123.97 357.884 123.97H353.667V113.178H357.521H357.476Z" fill="#F8F8FF"/>
<path d="M371.893 113.133V119.572C371.893 121.068 371.53 122.202 370.805 123.018C370.079 123.789 368.991 124.197 367.586 124.197C366.18 124.197 365.092 123.789 364.321 123.018C363.596 122.247 363.233 121.068 363.233 119.572V113.133H364.095V119.572C364.095 122.066 365.228 123.29 367.54 123.29C369.852 123.29 370.986 122.02 370.986 119.572V113.133H371.893Z" fill="#F8F8FF"/>
<path d="M379.192 123.109C379.781 123.109 380.37 123.018 380.96 122.837C381.504 122.61 382.003 122.338 382.411 121.93C382.819 121.567 383.181 121.068 383.408 120.524C383.635 119.98 383.771 119.345 383.771 118.665C383.771 117.985 383.635 117.305 383.408 116.715C383.181 116.126 382.819 115.672 382.411 115.264C381.957 114.856 381.504 114.539 380.915 114.357C380.37 114.131 379.736 114.04 379.101 114.04H375.474V123.154H379.192V123.109ZM379.056 113.133C379.826 113.133 380.552 113.314 381.232 113.586C381.912 113.858 382.501 114.221 383 114.675C383.499 115.173 383.907 115.718 384.224 116.398C384.541 117.078 384.677 117.803 384.677 118.62C384.677 119.436 384.541 120.116 384.269 120.796C383.952 121.476 383.589 122.02 383.091 122.474C382.592 122.927 382.003 123.29 381.368 123.562C380.688 123.834 380.008 123.925 379.237 123.925H374.613V113.133H379.101H379.056Z" fill="#F8F8FF"/>
<path d="M386.944 118.574C386.944 119.254 387.08 119.935 387.307 120.524C387.579 121.114 387.896 121.612 388.304 122.02C388.712 122.428 389.211 122.746 389.8 122.973C390.39 123.199 390.979 123.335 391.659 123.335C392.339 123.335 392.929 123.199 393.518 122.973C394.107 122.746 394.606 122.428 395.014 121.975C395.422 121.567 395.785 121.068 396.011 120.479C396.238 119.889 396.374 119.254 396.374 118.529C396.374 117.803 396.238 117.169 396.011 116.579C395.785 115.99 395.422 115.491 395.014 115.083C394.606 114.675 394.107 114.357 393.518 114.131C392.929 113.904 392.339 113.768 391.659 113.768C390.979 113.768 390.39 113.858 389.8 114.085C389.211 114.312 388.712 114.629 388.304 115.083C387.896 115.491 387.579 115.99 387.307 116.579C387.08 117.169 386.944 117.803 386.944 118.529V118.574ZM385.992 118.62C385.992 117.803 386.128 117.033 386.446 116.352C386.763 115.672 387.126 115.037 387.67 114.584C388.168 114.085 388.803 113.722 389.483 113.405C390.163 113.133 390.888 112.997 391.659 112.997C392.43 112.997 393.155 113.133 393.835 113.405C394.515 113.677 395.105 114.085 395.603 114.584C396.102 115.083 396.51 115.672 396.828 116.352C397.145 117.033 397.281 117.803 397.281 118.62C397.281 119.436 397.145 120.207 396.873 120.887C396.556 121.567 396.193 122.156 395.694 122.655C395.195 123.154 394.561 123.517 393.881 123.834C393.201 124.106 392.475 124.242 391.705 124.242C390.934 124.242 390.208 124.106 389.528 123.834C388.848 123.562 388.259 123.154 387.76 122.655C387.262 122.156 386.854 121.567 386.582 120.887C386.264 120.207 386.128 119.436 386.128 118.62H386.083H385.992Z" fill="#F8F8FF"/>
<path d="M412.378 113.133L408.615 123.925H407.889L406.031 118.075C405.895 117.667 405.804 117.305 405.713 117.033C405.623 116.761 405.577 116.534 405.532 116.352C405.532 116.171 405.441 116.035 405.441 115.99C405.441 115.99 405.351 116.171 405.305 116.352C405.305 116.534 405.215 116.715 405.124 117.033C405.033 117.305 404.942 117.667 404.806 118.075L402.948 123.97H402.177L398.414 113.178H399.321L402.086 121.068C402.222 121.522 402.313 121.884 402.404 122.202C402.494 122.474 402.54 122.61 402.54 122.61C402.54 122.61 402.585 122.474 402.676 122.202C402.721 121.93 402.812 121.567 402.993 121.068L405.033 114.72H405.759L407.799 121.068C407.935 121.522 408.025 121.884 408.116 122.202C408.161 122.474 408.252 122.61 408.252 122.61C408.252 122.61 408.297 122.474 408.388 122.202C408.479 121.93 408.569 121.567 408.751 121.068L411.471 113.178H412.378V113.133Z" fill="#F8F8FF"/>
<path d="M421.173 123.109V123.97H414.282V113.133H415.143V123.109H421.173Z" fill="#F8F8FF"/>
<path d="M429.515 120.025L427.52 115.491C427.52 115.491 427.384 115.219 427.339 115.037C427.293 114.901 427.203 114.72 427.157 114.629C427.112 114.493 427.112 114.403 427.067 114.312V114.176H427.021V114.267C427.021 114.267 426.931 114.448 426.885 114.584C426.84 114.72 426.795 114.856 426.704 114.992C426.659 115.128 426.568 115.31 426.523 115.446L424.528 119.98H429.515V120.025ZM429.877 120.841H424.165L422.805 123.97H421.808L426.613 113.178H427.384L432.19 123.97H431.238L429.877 120.841Z" fill="#F8F8FF"/>
<path d="M442.662 113.133V124.016H441.846L436.315 116.624C435.862 115.99 435.499 115.491 435.272 115.173C435.046 114.856 434.91 114.675 434.91 114.675V124.016H434.048V113.224H434.864L440.35 120.615C440.758 121.204 441.121 121.658 441.347 122.02C441.574 122.383 441.756 122.565 441.756 122.565V122.338C441.756 122.338 441.756 121.975 441.756 121.748C441.756 121.522 441.756 121.204 441.756 120.887V113.269H442.662V113.133Z" fill="#F8F8FF"/>
<path d="M452.772 123.109V123.97H445.654V113.133H452.681V113.995H446.516V117.758H451.503V118.574H446.516V123.109H452.772Z" fill="#F8F8FF"/>
<path d="M462.52 113.133V119.572C462.52 120.297 462.429 120.887 462.248 121.476C462.066 122.066 461.794 122.519 461.386 122.927C461.024 123.335 460.57 123.653 459.981 123.834C459.437 124.016 458.802 124.152 458.077 124.152C457.578 124.152 457.079 124.061 456.626 123.925C456.173 123.789 455.765 123.607 455.402 123.335C455.039 123.109 454.722 122.791 454.495 122.474C454.223 122.111 454.042 121.748 453.906 121.34L454.812 121.114C455.039 121.794 455.447 122.338 456.037 122.746C456.626 123.154 457.306 123.29 458.077 123.29C459.255 123.29 460.117 122.973 460.706 122.292C461.296 121.612 461.613 120.705 461.613 119.572V113.088H462.52V113.133Z" fill="#F8F8FF"/>
<defs>
<linearGradient id="paint0_linear_305_798" x1="57.1908" y1="115.231" x2="57.1908" y2="137.481" gradientUnits="userSpaceOnUse">
<stop stop-color="#36A9E1"/>
<stop offset="1" stop-color="#312783"/>
</linearGradient>
<linearGradient id="paint1_linear_305_798" x1="135.192" y1="130.409" x2="135.192" y2="147.866" gradientUnits="userSpaceOnUse">
<stop stop-color="#36A9E1"/>
<stop offset="1" stop-color="#312783"/>
</linearGradient>
<linearGradient id="paint2_linear_305_798" x1="48.6836" y1="27.1139" x2="48.6836" y2="43.4286" gradientUnits="userSpaceOnUse">
<stop stop-color="#36A9E1"/>
<stop offset="1" stop-color="#312783"/>
</linearGradient>
<linearGradient id="paint3_linear_305_798" x1="81.4946" y1="0.108825" x2="81.4946" y2="15.8522" gradientUnits="userSpaceOnUse">
<stop stop-color="#36A9E1"/>
<stop offset="1" stop-color="#312783"/>
</linearGradient>
<linearGradient id="paint4_linear_305_798" x1="93.1109" y1="14.2325" x2="93.1109" y2="23.7071" gradientUnits="userSpaceOnUse">
<stop stop-color="#36A9E1"/>
<stop offset="1" stop-color="#312783"/>
</linearGradient>
<linearGradient id="paint5_linear_305_798" x1="102.115" y1="140.992" x2="102.115" y2="147.899" gradientUnits="userSpaceOnUse">
<stop stop-color="#36A9E1"/>
<stop offset="1" stop-color="#312783"/>
</linearGradient>
<linearGradient id="paint6_linear_305_798" x1="107.732" y1="23.529" x2="107.732" y2="146.71" gradientUnits="userSpaceOnUse">
<stop stop-color="#36A9E1"/>
<stop offset="1" stop-color="#312783"/>
</linearGradient>
</defs>
</svg>
