<svg width="419" height="65" viewBox="0 0 419 65" fill="none" xmlns="http://www.w3.org/2000/svg">
<g clip-path="url(#clip0_236_1743)">
<path d="M394.297 50.2719H357.775V63.1204H395.616C403.504 63.1204 408.754 61.5214 413.273 57.2853C416.839 53.7225 419 49.234 419 44.0721C419 37.3112 415.351 32.3457 408.305 29.0635C412.908 26.2581 415.912 21.8257 415.912 17.0566C415.912 13.8585 414.593 10.7726 412.235 8.24776C408.473 4.20806 402.382 1.85156 394.213 1.85156H357.803V14.7001H392.163C395.167 14.7001 396.486 15.4575 397.525 16.4674C398.48 17.4213 399.013 18.6276 399.013 20.1425C399.013 21.6573 398.451 22.9478 397.525 23.9016C396.402 25.0238 394.69 25.5848 392.163 25.5848H357.803V37.3954H394.325C397.048 37.3954 398.732 37.9564 400.248 39.4433C401.371 40.5654 402.017 42.1645 402.017 43.8477C402.017 45.6431 401.343 47.2422 400.248 48.3643C399.013 49.5706 397.048 50.2439 394.325 50.2439L394.297 50.2719Z" fill="#0B1215"/>
<path d="M219.044 59.754L220.476 63.1485H238.414L209.949 1.87958H196.362L195.492 3.73111L202.987 21.4048H203.1L208.658 34.7302L208.714 34.8705L211.269 40.9862L219.044 59.754Z" fill="#0B1215"/>
<path d="M301.042 28.2499H296.944V41.6314L308.65 63.1485H327.233L313.169 38.7419C320.103 35.1791 324.426 29.2879 324.426 21.7695C324.426 16.6918 322.461 12.2033 319.177 8.72464C315.218 4.60077 309.408 1.87958 300.116 1.87958H265.952V63.1485H282.374V15.205H301.042C302.726 15.205 304.72 15.4855 306.207 17.0846C307.33 18.2909 307.976 19.9741 307.976 21.6854C307.976 25.9214 304.888 28.2499 301.042 28.2499Z" fill="#0B1215"/>
<path d="M95.1354 63.1485H146.002V49.3462H111.557V49.2339H95.1354V63.1485Z" fill="#0B1215"/>
<path d="M194.734 40.1446L194.903 39.7238L187.211 21.5732L167.926 63.1485H185.274L186.678 59.754L186.706 59.6138L189.12 53.7506L194.397 40.9862L194.734 40.1727V40.1446Z" fill="#0B1215"/>
<path d="M34.1634 65C47.694 65 58.7543 59.1088 66.1653 52.5162L56.2279 41.9961C50.7819 47.0738 43.371 51.2818 36.2407 51.2818C24.619 51.2818 17.0957 42.7536 17.0957 32.514C17.0957 22.2745 24.4225 13.7462 35.7635 13.7462C41.2936 13.7462 48.7327 16.4674 54.4593 21.1524L64.3125 10.464C56.4244 4.26415 44.9711 -0.0560913 33.7143 -0.0560913C13.7271 1.57245e-05 0 14.9245 0 32.4579C0 49.9914 13.6148 65 34.1634 65Z" fill="#0B1215"/>
<path d="M111.585 1.87958H95.1354V36.3854H111.585V1.87958Z" fill="#0B1215"/>
</g>
<defs>
<clipPath id="clip0_236_1743">
<rect width="419" height="65" fill="white"/>
</clipPath>
</defs>
</svg>
