<svg width="48" height="55" viewBox="0 0 48 55" fill="none" xmlns="http://www.w3.org/2000/svg">
<path d="M40.9708 7.36267C45.377 11.7684 47.8971 17.715 47.9981 23.9451C48.0991 30.1752 45.7732 36.2004 41.5121 40.7467L40.9708 41.3067L29.6561 52.6187C28.2205 54.0534 26.2931 54.8888 24.2646 54.9557C22.236 55.0225 20.2578 54.3158 18.7308 52.9787L18.3468 52.6187L7.02948 41.304C2.52858 36.8031 0 30.6986 0 24.3333C0 17.9681 2.52858 11.8636 7.02948 7.36267C11.5304 2.86177 17.6349 0.333191 24.0001 0.333191C30.3654 0.333191 36.4699 2.86177 40.9708 7.36267ZM24.0001 16.3333C22.9496 16.3333 21.9093 16.5403 20.9387 16.9423C19.9681 17.3443 19.0862 17.9336 18.3433 18.6765C17.6004 19.4194 17.0111 20.3013 16.6091 21.2719C16.2071 22.2425 16.0001 23.2828 16.0001 24.3333C16.0001 25.3839 16.2071 26.4242 16.6091 27.3948C17.0111 28.3654 17.6004 29.2473 18.3433 29.9902C19.0862 30.7331 19.9681 31.3223 20.9387 31.7244C21.9093 32.1264 22.9496 32.3333 24.0001 32.3333C26.1219 32.3333 28.1567 31.4905 29.657 29.9902C31.1573 28.4899 32.0001 26.4551 32.0001 24.3333C32.0001 22.2116 31.1573 20.1768 29.657 18.6765C28.1567 17.1762 26.1219 16.3333 24.0001 16.3333Z" fill="#324498"/>
</svg>
