<svg width="337" height="568" viewBox="0 0 337 568" fill="none" xmlns="http://www.w3.org/2000/svg">
<mask id="mask0_170_1197" style="mask-type:luminance" maskUnits="userSpaceOnUse" x="-284" y="128" width="544" height="413">
<path d="M-52.5982 482.374C-54.3494 477.799 -56.8036 473.583 -59.3149 469.545C-62.3662 464.452 -63.0659 459.043 -59.9396 453.597C-58.145 450.459 -55.2218 448.371 -51.6387 447.572C-4.77975 466.024 50.2699 460.909 93.9949 429.056C154.673 384.972 173.323 304.435 141.848 239.209C143.871 235.363 147.857 233.618 153.926 234.208C158.109 234.58 162.178 235.307 166.135 236.682C172.159 238.626 178.185 240.865 184.265 242.632C205.694 248.964 225.067 243.481 240.998 228.965C258.795 212.606 263.679 188.068 255.466 166.54L249.526 154.94C247.972 152.482 246.184 150.144 244.161 147.926C224.458 125.33 191.988 121.694 166.145 139.955C152.346 149.682 144.65 163.531 142.989 180.502C142.189 189.046 140.325 197.247 136.041 204.765C132.915 210.211 129.283 212.07 124.092 210.883C87.0239 163.902 27.2614 144.218 -28.1345 156.166C-67.1603 162.542 -99.8038 183.693 -125.771 219.616C-132.16 228.508 -136.478 238.557 -140.917 248.372C-143.166 253.221 -144.94 258.418 -149.441 261.758C-153.999 265.275 -157.473 265.131 -161.69 261.227C-166.442 256.857 -169.321 251.232 -172.084 245.548C-175.387 238.809 -178.924 232.19 -184.567 226.945C-201.144 211.031 -220.499 206.152 -242.395 212.482C-265.171 219.116 -277.193 236.068 -281.984 258.19C-285.419 274.295 -280.977 289.324 -270.9 302.651C-250.209 330.066 -207.507 332.604 -184.083 307.596C-180.937 304.21 -177.851 300.707 -174.228 297.965C-159.852 287.054 -155.355 289.484 -152.076 305.996C-150.59 313.518 -149.691 321.339 -148.851 329.044C-146.167 351.036 -136.622 370.256 -125.085 388.455C-120.782 395.126 -115.78 401.142 -110.368 406.801C-102.511 415.793 -93.6055 423.656 -84.1225 430.336C-83.111 431.445 -82.2168 432.614 -81.4968 434.02C-78.5056 438.996 -79.283 443.831 -83.7779 447.759C-88.3899 451.748 -93.8475 453.507 -99.7251 454.446C-112.892 456.455 -123.424 463.031 -130.614 474.403C-140.53 489.98 -139.457 509.692 -127.655 524.946C-117.103 538.622 -97.9168 544.327 -81.1325 538.986C-78.4323 538.195 -75.912 537.053 -73.569 535.853C-52.2468 524.936 -45.9448 500.856 -52.8897 482.671" fill="white"/>
</mask>
<g mask="url(#mask0_170_1197)">
<path d="M-137.889 568.491L336.938 325.369L168.649 -3.30552L-306.178 239.816L-137.889 568.491Z" fill="url(#paint0_linear_170_1197)"/>
</g>
<defs>
<linearGradient id="paint0_linear_170_1197" x1="56.3299" y1="463.589" x2="-106.655" y2="145.273" gradientUnits="userSpaceOnUse">
<stop stop-color="#36A9E1"/>
<stop offset="1" stop-color="#312783"/>
</linearGradient>
</defs>
</svg>
