<svg width="782" height="800" viewBox="0 0 782 800" fill="none" xmlns="http://www.w3.org/2000/svg">
<path d="M639.905 402.545L637.217 406.73L637.385 412.422C637.385 412.422 638.393 413.092 639.905 414.096C641.417 415.101 642.425 417.445 642.425 417.445C642.425 417.445 638.057 415.938 636.713 415.938C635.369 415.938 629.825 416.943 629.825 416.943L629.657 419.621C629.657 419.621 627.809 420.96 626.97 421.295C626.13 421.63 624.618 423.807 624.618 423.807L628.313 428.494L626.97 431.675L624.45 429.164L622.77 431.005L620.082 429.331L618.234 434.186C618.234 434.186 619.074 435.693 619.914 437.2C620.754 438.707 619.914 440.213 619.914 440.213C619.914 440.213 616.554 440.213 614.706 439.544C612.858 438.874 611.514 436.865 611.514 436.865H606.643L604.123 439.544L601.603 436.53V433.851L596.731 433.517L593.203 431.005V427.824L586.82 432.512L588.667 434.521L588.835 435.023L589.171 439.376L589.003 441.553V443.394L588.667 444.733L588.331 445.068L587.66 445.236L585.98 445.403L585.476 445.738L584.636 446.408L583.292 448.249L582.788 450.091L579.932 450.426C579.932 450.426 579.092 449.756 578.588 448.919C578.084 448.082 578.588 446.91 578.588 446.91L575.06 445.236L573.212 446.742C573.212 446.742 571.196 445.068 570.188 444.231C569.18 443.394 567.669 440.716 567.669 440.716H563.973C563.973 440.716 563.301 441.05 562.461 441.72C561.621 442.39 560.949 443.394 560.613 444.231C560.277 445.068 559.101 448.584 559.101 448.584H557.085L555.573 450.593L548.685 450.426L548.014 452.937L542.638 455.615L540.958 453.607C540.958 453.607 541.294 452.267 541.798 450.593C542.302 448.919 540.118 446.91 540.118 446.91H537.43L537.094 450.426L532.726 454.109L518.279 449.756C518.279 449.756 517.607 451.43 517.271 452.937C516.935 454.444 514.079 454.778 512.567 454.611C511.055 454.444 505.512 453.104 505.512 453.104L504.168 450.426L501.816 450.593C501.816 450.593 501.816 451.932 500.472 452.602C499.128 453.272 497.448 452.602 497.448 452.602L493.92 456.955H489.72L487.873 459.466L483.001 460.136C483.001 460.136 482.161 461.81 481.657 463.317C481.153 464.823 479.977 466.33 479.977 466.33L483.337 470.013L482.329 474.366C482.329 474.366 483.337 474.533 484.681 475.203C486.025 475.873 486.361 479.388 486.361 479.388L484.513 480.058L483.841 485.75C483.841 485.75 481.825 486.085 478.969 486.755C476.113 487.424 478.633 491.945 478.633 491.945L481.153 492.112L481.321 490.103C481.321 490.103 486.529 489.768 488.209 489.768C489.888 489.768 490.728 493.451 490.728 494.456C490.728 495.46 493.08 499.813 493.08 499.813L490.56 499.646L488.041 502.827C488.041 502.827 487.201 501.822 485.017 501.822C482.833 501.822 483.505 504.501 483.505 504.501C483.505 504.501 479.137 505.338 477.625 506.175C476.113 507.012 475.945 509.858 475.945 509.858L478.969 511.867C478.969 511.867 481.489 513.541 481.657 514.546C481.825 515.55 482.329 516.89 483.337 518.731C484.345 520.573 485.017 520.573 483.505 521.745C481.993 522.917 480.481 525.763 480.481 525.763L478.633 524.088L476.785 527.102L477.793 529.446L475.105 530.785L469.729 528.441L468.218 528.943L465.362 529.446L464.354 529.948L463.514 530.618V531.957L463.682 532.627V533.966L463.346 535.138L462.506 535.807L461.33 535.975L459.65 535.138L458.978 534.301L458.81 533.296V532.459L459.146 529.613L458.474 528.776L457.13 527.772L456.458 526.934L455.954 525.93L455.618 525.595H454.946L453.938 526.097L453.602 526.6V527.102L453.434 528.441V530.283L453.266 531.79L452.426 534.133L451.418 535.473L449.906 536.979L449.57 537.314L449.067 537.482L450.242 538.319L450.578 538.988L451.586 541.834L452.93 544.346L454.778 546.355L455.282 546.857L457.802 547.527L460.49 547.861H461.498L462.338 547.694L463.178 547.861L464.354 549.536L465.194 549.703L466.034 549.536L468.386 547.861L469.729 547.192L471.577 547.024L472.417 547.192L473.593 548.029L474.937 549.536L475.273 550.205L475.441 551.879V553.888L475.273 554.725V555.562L475.609 556.232L477.625 557.237L477.961 557.906L478.297 558.576L477.961 560.25L477.793 561.087L477.289 562.594L476.281 564.603V565.44L477.625 566.11L479.977 566.779L481.489 566.947L480.817 567.784L479.473 570.462L479.137 571.634V572.974L479.305 574.146L479.137 574.648L478.465 575.485L477.625 575.987L476.449 577.159H475.777L475.273 576.824L473.929 576.657L473.425 576.824L471.745 578.164L470.737 578.666L469.729 578.833L468.386 580.173L468.05 580.675V581.344L468.386 581.847L468.89 582.014H470.233L472.081 581.847L472.753 582.851V584.693L473.089 586.367L473.761 587.204L474.097 587.539H475.441L475.945 587.874L476.449 588.711L477.121 588.878L477.793 588.209L478.465 588.041L478.801 588.376L478.969 589.715L478.633 592.394L477.961 594.236L477.289 595.24L477.121 595.91L476.785 598.086L476.113 600.765L475.105 602.104L474.097 602.774H473.593L472.081 604.113L471.241 604.783L469.729 605.62L469.561 606.122L470.065 606.457H470.737L471.913 606.289L473.425 605.787L474.097 605.955V607.294L475.945 607.126L478.969 609.973L478.297 610.307L475.105 610.977L473.929 611.647L472.921 612.651L472.249 613.991L471.577 616.502V617.506L470.065 625.04L469.729 628.053L470.737 629.058L471.073 629.895L472.585 632.574L473.593 633.913L473.761 635.085V635.755L473.089 637.596L471.745 641.112L471.409 641.614L470.737 643.288V644.125L469.561 645.13L469.729 647.976L469.897 648.813L470.401 652.998L471.577 654.672L471.409 655.945L471.073 657.016L470.905 657.184L469.393 658.021L469.226 658.69L469.393 659.695L469.226 660.532L466.202 661.704H465.53L465.026 661.537L463.85 660.532L462.842 659.862H461.666L458.978 660.532L458.474 659.36L458.138 657.853L457.466 656.347L456.29 655.342L455.282 654.84L453.938 654.505L451.586 654.84L449.738 654.17L449.067 654.003L448.731 654.505L448.563 655.342L447.555 656.179L446.883 656.012L445.875 655.51L444.699 655.677L443.019 656.849H442.515L442.011 656.514H441.339L440.835 656.681L438.315 657.853L437.307 658.021L436.971 657.853L436.299 656.849L435.795 656.514H433.947L432.771 656.681L431.931 657.184L431.091 657.853L430.755 658.356V659.025L431.595 660.365L433.107 661.871L433.275 662.374L431.931 662.541L430.083 661.369L429.411 661.202L428.74 661.537V662.206L429.244 663.043L430.419 664.215V664.717L426.724 665.889H426.052L425.38 665.22L425.044 664.717L424.708 664.383L424.54 663.88L423.7 663.043L422.86 662.374L418.996 661.704L417.316 660.867L416.14 660.699L415.804 660.197V657.518L415.972 657.016L415.804 656.347V655.844L413.956 656.012L413.62 655.677L413.284 654.672H411.94L411.604 652.161L383.214 652.496L382.542 651.659V650.989L383.214 649.148L383.382 647.641L383.55 645.632L383.886 644.46L384.726 642.953L384.894 642.284L384.726 641.781L384.054 641.614L381.87 641.447L381.366 641.279V639.94L381.198 638.768L380.526 638.098L377.67 636.257L376.494 635.085L376.326 634.583L376.494 634.08L377.166 633.243L378.51 632.406L379.182 631.737L379.854 630.565L379.686 630.062L379.518 629.393L378.006 627.886L377.838 627.551L377.502 626.547L376.662 625.71L375.15 625.04L374.142 624.37H373.47L373.302 625.04L373.806 627.216V627.886L373.638 629.225L373.47 629.895L372.126 631.737L369.439 635.085L368.767 635.252L367.927 634.583L367.591 634.248H367.087L366.247 634.917L364.567 636.257H363.895L363.055 635.755L362.719 634.583L362.215 634.248H361.543L359.191 631.737L354.151 627.886L348.104 634.917L345.08 630.062L340.712 632.406L338.696 630.899L337.856 633.411L339.2 634.583L336.68 636.424L334.832 635.922L333.656 636.759L332.816 637.596L332.48 637.764L331.976 637.429L330.801 636.257L330.633 635.085L330.801 633.746L327.441 631.067L326.601 630.397L326.097 630.565L322.905 633.411L321.729 633.578L321.393 633.411L321.225 632.239L321.729 631.067L323.409 629.058L323.577 628.388V627.719L323.409 626.547L322.569 625.375L321.729 624.538L319.041 622.864L316.857 621.692L316.017 621.189L314.673 619.348L314.337 618.343L313.665 617.004L312.993 616.167L311.482 615.162L308.962 614.493L307.786 614.66L307.114 615.497L306.106 617.674L305.602 618.009L302.578 618.343L302.242 618.176L301.906 617.506L301.57 616L301.066 614.995L300.898 614.493L300.226 613.656L299.722 613.488L302.074 608.131L299.554 606.792L297.874 608.298L294.682 602.271L298.042 600.262L297.538 597.249L285.611 595.575L286.115 594.738L286.451 594.236L286.787 592.896V590.72L287.123 588.041L287.291 587.371L288.299 585.028L288.467 584.358C288.467 584.358 291.323 582.851 292.498 581.512C293.674 580.173 293.842 576.824 293.842 576.824L294.682 571.969L297.874 569.625L300.562 569.793L299.05 563.096L298.882 558.409L294.682 560.083L291.491 559.581V556.902L291.659 555.562L292.33 552.884L292.834 549.368V547.192L292.666 545.35L292.33 545.015L288.971 543.509L287.459 542.002L287.291 541.5V539.491L287.627 538.151L288.467 536.645L288.971 536.31L289.139 535.64L286.115 530.785L285.611 530.45L284.603 530.115L284.435 528.274L283.763 526.097L283.931 525.428L284.267 524.925L284.771 524.758L285.779 524.088L287.291 521.912L288.467 520.74L290.147 519.568L291.323 519.233L293.17 519.066L294.01 519.233L298.882 521.577L301.234 522.414L302.578 522.917L306.106 523.251L307.45 523.586L307.954 523.921L308.626 524.758L310.138 525.595L311.482 526.6L312.153 526.767L312.657 526.6L312.993 526.097L313.665 524.256L314.169 523.921H314.673L315.345 524.088H316.017L316.185 522.582L316.521 522.079L319.209 522.247L319.713 522.079L320.049 521.745L320.217 519.736V517.224L320.049 514.713L319.713 512.369L319.041 510.36L318.537 509.356L317.865 508.519L316.521 507.514L315.345 507.012L311.817 506.342L311.146 506.175L309.97 505.17L309.634 504.668L309.298 502.994L308.962 499.813L309.634 494.288L305.602 492.782L306.106 490.438L313.665 490.773L314.001 489.099L311.482 488.262L311.65 483.909L309.466 480.728L307.114 478.217L307.954 476.71L298.546 475.203C298.546 475.203 297.202 475.036 296.53 474.366C295.858 473.696 295.69 472.022 296.53 470.85C297.37 469.678 295.018 469.176 295.018 469.176L295.354 466.497L290.147 466.665L291.155 463.986L287.963 463.317L286.619 467L284.099 466.832L283.427 463.317C283.427 463.317 281.579 464.991 281.075 465.995C280.571 467 280.067 469.176 280.067 469.176C280.067 469.176 277.715 468.841 276.035 468.841C274.355 468.841 274.355 469.678 274.355 470.85C274.355 472.022 273.347 471.855 271.836 472.19C270.324 472.524 269.316 471.855 269.148 470.85C268.98 469.846 270.156 469.511 271.164 469.511C272.171 469.511 271.836 468.172 271.332 466.163C270.828 464.154 269.988 465.158 268.812 465.158C267.636 465.158 265.452 466.832 265.452 466.832H262.26L261.924 461.81L269.484 458.294L266.46 458.127L266.292 455.113L262.596 451.43L260.748 452.1L256.716 446.742L262.596 441.05L262.428 436.698L265.116 435.358L264.948 430.671L263.604 429.331L263.94 427.322L258.732 426.653L257.388 428.327L252.181 423.974L252.013 420.291C252.013 420.291 248.653 420.626 247.309 420.96C245.965 421.128 244.621 421.295 243.277 420.626C241.933 419.956 241.597 418.282 241.597 416.608C241.597 414.934 238.573 412.255 238.573 412.255L241.261 403.549L239.749 402.043L234.373 399.699L235.213 397.857L229.838 397.188L226.31 396.183L224.63 391.663L220.43 389.654C220.43 389.654 219.422 390.491 217.406 389.821C215.39 389.152 215.39 386.64 215.39 386.64L212.703 386.473L210.015 390.826L211.527 391.663L209.511 394.174L207.159 395.011L205.479 393.672C205.479 393.672 204.639 392.835 202.287 393.002C199.935 393.17 199.599 396.518 199.599 396.518L194.223 397.188L189.184 394.174C189.184 394.174 187.84 395.848 186.664 397.522C185.488 399.196 182.464 399.531 182.464 399.531L179.104 396.518L179.44 394.509H177.088L177.928 391.495C177.928 391.495 174.4 391.495 172.553 391.328C170.705 391.161 162.641 387.143 162.641 387.143L163.313 383.125L157.601 381.45L156.593 379.609L153.569 382.288H149.538L149.37 380.613L144.666 381.953L139.794 379.274V376.93C139.794 376.93 138.954 376.595 137.442 375.591C135.93 374.586 138.45 372.243 138.45 372.243L134.25 370.903H134.418L134.754 369.731L134.922 366.383L135.426 363.704L135.762 363.035V361.863L135.258 361.026L134.922 360.523H131.563L131.059 360.189L130.723 359.686L130.891 359.017L132.067 357.175H132.739L135.09 355.668L137.946 356.84L138.45 356.673L139.122 355.668L139.626 352.655L139.962 351.316L140.13 350.813L140.634 349.809L141.642 349.139L142.65 348.804L142.986 348.47L143.322 347.967L143.826 346.126L144.33 345.121L144.666 344.619L145.17 344.452H145.842L147.858 344.954L148.362 344.786L148.698 344.284L148.866 343.782L148.698 342.61L148.026 341.773L146.682 340.768L143.154 338.76L142.818 338.257L142.482 337.253L142.314 334.909L141.642 332.565L141.474 331.393L141.642 330.724L141.978 330.221L143.49 329.384L145.674 328.715L147.018 327.877L147.354 327.375L147.522 326.873V325.534L147.69 324.864L148.026 324.362L150.378 323.86L150.882 323.692L151.218 323.357L153.234 323.19L150.042 322.185L147.522 319.507L145.506 317.665L143.658 316.828L145.338 313.647L146.01 313.815L146.682 313.647L148.026 312.643L150.546 310.131L152.226 307.62L153.402 305.444L153.569 304.942V304.272L154.241 298.58L154.577 296.571L154.913 296.069L156.761 296.738L157.769 297.24L158.609 297.91L160.457 299.752L161.633 300.254L162.305 300.421L162.809 300.254L163.481 299.417L163.313 296.738L162.305 294.227V292.888L162.641 292.218L163.481 291.548L163.817 291.046L163.985 290.376L163.817 289.874L162.137 289.205L161.633 288.87L161.297 287.865L161.465 287.196L161.969 286.191L162.137 285.354L161.969 284.852L161.801 284.349L160.121 282.843L158.105 281.671L157.265 281.001L156.089 278.657L154.409 277.151L152.562 275.811L152.226 275.309V274.639L153.234 272.965L154.745 270.956L156.425 269.45L157.265 268.947L157.937 268.11L158.105 267.608L158.609 265.599L159.281 264.762L159.785 264.594L161.801 265.599H162.305L162.641 265.264V264.594L161.801 263.255L158.609 260.074L155.249 257.396L154.913 256.893L154.409 256.056L154.241 255.387L154.409 254.717L155.921 252.206L155.585 251.201L155.417 250.029L155.081 249.025L155.417 247.685L155.753 247.183L158.105 248.188L161.297 250.364L162.473 250.029L162.809 249.527L163.649 248.857L165.497 247.853L168.017 247.351L170.201 247.518L171.377 247.351L171.713 247.016L172.049 245.677L171.881 244.672L171.713 244.002L171.377 243.668L171.209 243.165L170.369 242.496L169.697 241.659L170.033 241.156L171.041 240.654L171.713 240.487L173.057 240.654L174.736 241.324H176.08L176.752 241.156L179.104 241.993L180.616 242.161L181.624 242.83L182.296 244.337L182.632 244.839L183.976 245.844L185.656 246.514L186.328 246.681H187L187.336 246.346L187.672 245.844L187.504 245.509L187.168 244.839L186.832 244.337L186.496 243.333L185.992 242.496L183.976 239.984V239.315L184.816 235.297L185.152 234.795L185.992 234.125L187.168 233.957L187.336 233.455V232.116L187.168 231.614L186.832 231.279L185.656 230.777L184.312 228.433L183.64 228.265H182.296L181.96 227.93L181.624 226.926L181.456 225.587L181.12 224.582L180.616 223.578V222.908L180.784 222.238L182.128 220.397L181.792 219.392L180.616 218.22L179.944 216.714L179.608 215.709V213.198L179.776 211.022L180.112 209.682V208.845L180.28 208.343L180.616 208.175L183.976 209.013H185.992L187.504 208.343L189.688 205.832L190.696 205.162L193.383 204.325L195.735 203.823H196.407L196.911 203.488L198.793 203.99L201.817 203.153L208.872 206.334L209.88 201.646L208.2 199.805C208.2 199.805 215.256 193.945 216.432 193.108C217.608 192.271 218.448 192.104 219.792 192.438C221.136 192.773 221.472 194.113 221.472 194.113L219.96 199.47L221.976 201.814L226.343 202.818L229.031 206.501L233.903 204.827L235.751 205.832L236.759 202.818L238.607 204.157L241.967 203.488L242.135 201.479L246.166 201.311C246.166 201.311 246.838 202.148 247.678 203.153C248.518 204.157 248.518 207.171 248.518 207.171H252.718L254.062 204.157C254.062 204.157 261.79 205.162 262.798 205.497C263.806 205.832 265.317 206.836 266.325 207.338C267.333 207.841 268.845 208.175 269.853 208.175C270.861 208.175 274.221 206.836 275.565 206.334C276.909 205.832 276.405 203.823 276.237 202.316C276.069 200.809 277.917 200.307 279.261 199.637C280.605 198.968 283.293 198.298 283.293 198.298L283.125 196.791L287.492 193.108L290.012 189.927L291.86 187.751L293.036 187.583L294.716 188.253L295.052 188.588L296.564 189.592H297.236L299.42 188.923H300.764L304.123 189.76L305.131 189.425L305.971 188.588L306.811 187.249L307.483 186.411L308.659 185.407L309.331 185.24L309.835 185.407L310.339 185.909H311.011L311.515 185.742L311.851 185.574L313.027 184.235L313.699 183.398L314.539 182.728L315.547 182.393L319.411 182.896L321.427 182.059L322.435 181.389V181.054L322.603 180.384L322.939 179.045L323.61 176.367L324.114 175.195L324.786 174.19L326.634 174.692H327.306L327.642 173.353L327.81 171.846L328.314 171.679L328.482 172.181L329.154 172.851L329.658 172.683L332.514 170.172L333.018 170.005L336.378 171.009L337.722 171.177L341.922 172.181L342.93 172.683L344.105 173.688L344.609 174.525L345.281 174.358L345.617 173.855L347.465 172.851L349.649 172.181L350.489 170.842L350.993 170.507L354.353 171.344L356.033 170.842L356.873 170.172L357.209 169.837L357.377 169.168V167.996L357.209 166.656L357.377 165.819V165.15L357.881 163.308L358.553 162.471L360.065 161.801H360.737L362.081 162.304L362.417 162.638H363.088L365.944 160.964L366.448 160.797H367.12L368.968 161.467L369.976 162.136L370.312 162.638L370.816 162.973L372.664 164.815L373.672 165.484L374.344 165.819L376.024 165.317L378.376 163.141L381.232 161.467L381.736 161.299L384.591 159.625L385.095 159.123L386.271 156.444L387.447 155.272L389.799 153.933L390.975 152.761L403.742 146.064H405.59L405.422 149.413L407.438 150.25L408.446 146.734C408.446 146.734 411.638 147.571 412.814 147.738C413.99 147.906 416.174 146.399 416.174 146.399C416.174 146.399 421.046 146.232 422.053 145.729C423.061 145.227 426.925 143.888 426.925 143.888C426.925 143.888 425.413 142.883 424.909 142.046C424.405 141.209 420.878 140.205 425.245 138.865C429.613 137.526 434.317 135.685 434.317 135.685L439.525 134.345L441.037 134.68H443.052L445.203 134.345L446.967 134.111L447.42 134.68L447.756 135.182L448.092 136.187L447.924 136.856L447.252 137.024L446.748 136.856V137.526L447.084 138.531V141.042L447.42 142.883L447.756 143.888L448.428 144.725L449.436 145.395L451.284 146.064L450.948 146.567L450.108 147.404L449.94 148.073V149.245L450.276 149.747L450.948 149.915L452.964 150.082L454.644 152.091L455.148 153.096L454.812 153.598L454.476 154.937L455.988 157.783V158.286L455.82 158.955L455.148 159.96L454.644 160.127L453.468 161.132V161.969L454.257 163.409L453.972 163.476L454.425 163.71L454.476 163.81V163.76L456.492 164.815L457.836 163.308L463.547 169.168L458.844 170.172L458.676 168.163L453.972 167.828L454.98 172.349L455.652 173.855L455.988 176.032V176.701L455.652 177.371H453.636L453.132 177.538L452.796 178.041L452.964 179.882L453.132 180.384L453.804 181.054L454.308 181.891L455.148 184.068L456.156 185.24L457.836 188.086L458.508 190.764V192.104L458.34 193.945L458.508 195.117L459.516 197.126L460.86 199.302L461.196 200.307L461.363 201.479L461.196 202.148L461.028 203.655V204.325L461.363 205.329L461.867 206.334L464.051 209.347L467.243 211.691L468.587 212.026H469.931L473.627 211.524H474.971L475.643 211.691L476.819 212.193L477.491 213.03L477.827 214.035L478.163 216.379L478.499 217.551L479.003 218.388L480.515 219.225L482.362 219.895L483.034 221.401L483.538 221.904L485.05 222.741L485.722 222.573L486.226 222.238L487.57 220.564L489.082 219.225L489.586 219.057L490.762 218.89L491.602 219.057L492.106 219.392L492.442 219.895L492.274 220.564L491.602 221.569L490.93 223.243L490.762 223.912L491.098 225.587L492.106 226.926L492.274 227.428V227.93L489.082 229.939H488.41L488.074 229.437L487.738 228.433H487.066L486.73 228.935L486.394 230.274L486.226 231.111L486.394 232.283L487.066 233.79L489.418 236.134L492.274 237.808L494.458 239.482L498.322 241.324L500.338 241.826L500.674 242.161L501.345 243.668L502.521 247.351V248.69L502.353 249.36L501.513 250.699L501.01 251.034L500.338 252.038V252.708L500.506 253.21L502.017 255.554L502.353 256.559L502.689 258.233L503.193 258.568L504.369 258.4L505.041 258.568L505.209 261.079L506.217 265.599L507.057 267.775L510.585 267.608L512.937 269.45L514.449 265.097L517.473 269.115L523.52 266.436L526.544 266.771L527.384 261.079H533.432L535.952 259.237L537.968 262.753L536.456 266.771L539.816 266.436L539.144 271.291H532.256L536.288 283.68L539.48 283.847L539.144 288.87H544.855L544.519 284.182L550.231 283.178L550.063 279.997L559.807 280.666C559.807 280.666 560.646 284.349 560.646 285.521C560.646 286.693 560.478 288.367 559.639 289.707C558.799 291.046 558.799 292.218 559.639 294.562C560.478 296.906 559.807 297.743 558.631 299.584C557.455 301.426 558.799 302.598 559.471 304.607C560.143 306.616 560.143 307.788 559.471 309.294C558.799 310.801 560.143 313.312 560.143 313.312L564.51 313.48L560.143 316.661L559.807 320.176L557.455 321.013L556.951 324.194L559.471 325.701L559.807 326.371L559.975 327.208L560.311 327.877L560.814 329.384L561.486 330.556L562.494 331.561L563.166 331.895L564.342 332.733L565.35 334.742L566.526 336.416L568.038 337.922L569.214 338.76L569.718 339.262L569.886 340.099V340.936L569.55 342.777L568.878 344.284L568.71 345.121L568.374 345.958L568.542 347.633L569.046 349.139L569.382 350.646L570.222 351.818H571.902L572.742 351.985L573.078 352.655L573.246 354.329L572.91 356.003L572.406 357.51V360.356L573.078 361.695L574.086 362.532L574.59 364.039L574.926 365.379L576.942 366.383L577.278 367.053L577.614 367.89L578.286 368.392L579.126 368.225L580.469 367.555L581.141 367.89L581.645 369.397L581.981 370.066H582.989L583.661 369.731L585.509 370.066L587.021 369.564L588.365 370.234L590.213 370.401L591.053 370.234L592.397 369.564L593.237 369.397L594.077 369.564L596.093 370.568H597.773L600.628 370.401L601.468 370.568L602.476 371.573L602.812 372.243L603.316 372.745L604.156 372.912L605.668 372.577L606.676 372.745L611.212 374.419L615.412 375.423H616.42L617.092 375.256L618.268 374.419L621.459 373.749L623.475 372.912L625.155 372.745L626.163 372.912L625.827 373.414L628.179 373.917L628.683 374.419L629.355 375.423L629.691 376.595L630.363 377.767L630.867 378.102L632.211 378.604L632.043 380.613L632.211 381.45L632.715 381.953H633.723L634.731 381.116H635.739L638.427 382.455L639.77 383.962L640.778 385.803L641.282 387.31L641.114 388.147L639.938 389.989L639.77 390.826L640.106 391.495L641.618 392.165H642.626L645.314 391.998L646.658 391.328L648.17 389.821L649.682 389.486L650.522 389.654L651.278 389.989L643.265 403.382L639.905 402.545Z" fill="#F8F8FF" stroke="#0B1215" stroke-width="0.71" stroke-linejoin="round"/>
<path d="M443.971 176.029C448.377 180.435 450.897 186.382 450.998 192.612C451.099 198.842 448.773 204.867 444.512 209.413L443.971 209.973L432.656 221.285C431.22 222.72 429.293 223.556 427.265 223.622C425.236 223.689 423.258 222.983 421.731 221.645L421.347 221.285L410.029 209.971C405.529 205.47 403 199.365 403 193C403 186.635 405.529 180.53 410.029 176.029C414.53 171.529 420.635 169 427 169C433.365 169 439.47 171.529 443.971 176.029ZM427 185C425.95 185 424.909 185.207 423.939 185.609C422.968 186.011 422.086 186.6 421.343 187.343C420.6 188.086 420.011 188.968 419.609 189.939C419.207 190.909 419 191.95 419 193C419 194.051 419.207 195.091 419.609 196.062C420.011 197.032 420.6 197.914 421.343 198.657C422.086 199.4 422.968 199.989 423.939 200.391C424.909 200.793 425.95 201 427 201C429.122 201 431.157 200.157 432.657 198.657C434.157 197.157 435 195.122 435 193C435 190.878 434.157 188.844 432.657 187.343C431.157 185.843 429.122 185 427 185Z" fill="#324498"/>
<path d="M364.971 322.029C369.377 326.435 371.897 332.382 371.998 338.612C372.099 344.842 369.773 350.867 365.512 355.413L364.971 355.973L353.656 367.285C352.22 368.72 350.293 369.556 348.265 369.622C346.236 369.689 344.258 368.983 342.731 367.645L342.347 367.285L331.029 355.971C326.529 351.47 324 345.365 324 339C324 332.635 326.529 326.53 331.029 322.029C335.53 317.529 341.635 315 348 315C354.365 315 360.47 317.529 364.971 322.029ZM348 331C346.95 331 345.909 331.207 344.939 331.609C343.968 332.011 343.086 332.6 342.343 333.343C341.6 334.086 341.011 334.968 340.609 335.939C340.207 336.909 340 337.95 340 339C340 340.051 340.207 341.091 340.609 342.062C341.011 343.032 341.6 343.914 342.343 344.657C343.086 345.4 343.968 345.989 344.939 346.391C345.909 346.793 346.95 347 348 347C350.122 347 352.157 346.157 353.657 344.657C355.157 343.157 356 341.122 356 339C356 336.878 355.157 334.844 353.657 333.343C352.157 331.843 350.122 331 348 331Z" fill="#324498"/>
<path d="M253.971 245.029C258.377 249.435 260.897 255.382 260.998 261.612C261.099 267.842 258.773 273.867 254.512 278.413L253.971 278.973L242.656 290.285C241.22 291.72 239.293 292.556 237.265 292.622C235.236 292.689 233.258 291.983 231.731 290.645L231.347 290.285L220.029 278.971C215.529 274.47 213 268.365 213 262C213 255.635 215.529 249.53 220.029 245.029C224.53 240.529 230.635 238 237 238C243.365 238 249.47 240.529 253.971 245.029ZM237 254C235.95 254 234.909 254.207 233.939 254.609C232.968 255.011 232.086 255.6 231.343 256.343C230.6 257.086 230.011 257.968 229.609 258.939C229.207 259.909 229 260.95 229 262C229 263.051 229.207 264.091 229.609 265.062C230.011 266.032 230.6 266.914 231.343 267.657C232.086 268.4 232.968 268.989 233.939 269.391C234.909 269.793 235.95 270 237 270C239.122 270 241.157 269.157 242.657 267.657C244.157 266.157 245 264.122 245 262C245 259.878 244.157 257.844 242.657 256.343C241.157 254.843 239.122 254 237 254Z" fill="#324498"/>
<path d="M575.971 371.029C580.377 375.435 582.897 381.382 582.998 387.612C583.099 393.842 580.773 399.867 576.512 404.413L575.971 404.973L564.656 416.285C563.22 417.72 561.293 418.556 559.265 418.622C557.236 418.689 555.258 417.983 553.731 416.645L553.347 416.285L542.029 404.971C537.529 400.47 535 394.365 535 388C535 381.635 537.529 375.53 542.029 371.029C546.53 366.529 552.635 364 559 364C565.365 364 571.47 366.529 575.971 371.029ZM559 380C557.95 380 556.909 380.207 555.939 380.609C554.968 381.011 554.086 381.6 553.343 382.343C552.6 383.086 552.011 383.968 551.609 384.939C551.207 385.909 551 386.95 551 388C551 389.051 551.207 390.091 551.609 391.062C552.011 392.032 552.6 392.914 553.343 393.657C554.086 394.4 554.968 394.989 555.939 395.391C556.909 395.793 557.95 396 559 396C561.122 396 563.157 395.157 564.657 393.657C566.157 392.157 567 390.122 567 388C567 385.878 566.157 383.844 564.657 382.343C563.157 380.843 561.122 380 559 380Z" fill="#324498"/>
<path d="M364.971 558.029C369.377 562.435 371.897 568.382 371.998 574.612C372.099 580.842 369.773 586.867 365.512 591.413L364.971 591.973L353.656 603.285C352.22 604.72 350.293 605.556 348.265 605.622C346.236 605.689 344.258 604.983 342.731 603.645L342.347 603.285L331.029 591.971C326.529 587.47 324 581.365 324 575C324 568.635 326.529 562.53 331.029 558.029C335.53 553.529 341.635 551 348 551C354.365 551 360.47 553.529 364.971 558.029ZM348 567C346.95 567 345.909 567.207 344.939 567.609C343.968 568.011 343.086 568.6 342.343 569.343C341.6 570.086 341.011 570.968 340.609 571.939C340.207 572.909 340 573.95 340 575C340 576.051 340.207 577.091 340.609 578.062C341.011 579.032 341.6 579.914 342.343 580.657C343.086 581.4 343.968 581.989 344.939 582.391C345.909 582.793 346.95 583 348 583C350.122 583 352.157 582.157 353.657 580.657C355.157 579.157 356 577.122 356 575C356 572.878 355.157 570.844 353.657 569.343C352.157 567.843 350.122 567 348 567Z" fill="#324498"/>
<path d="M431.971 456.029C436.377 460.435 438.897 466.382 438.998 472.612C439.099 478.842 436.773 484.867 432.512 489.413L431.971 489.973L420.656 501.285C419.22 502.72 417.293 503.556 415.265 503.622C413.236 503.689 411.258 502.983 409.731 501.645L409.347 501.285L398.029 489.971C393.529 485.47 391 479.365 391 473C391 466.635 393.529 460.53 398.029 456.029C402.53 451.529 408.635 449 415 449C421.365 449 427.47 451.529 431.971 456.029ZM415 465C413.95 465 412.909 465.207 411.939 465.609C410.968 466.011 410.086 466.6 409.343 467.343C408.6 468.086 408.011 468.968 407.609 469.939C407.207 470.909 407 471.95 407 473C407 474.051 407.207 475.091 407.609 476.062C408.011 477.032 408.6 477.914 409.343 478.657C410.086 479.4 410.968 479.989 411.939 480.391C412.909 480.793 413.95 481 415 481C417.122 481 419.157 480.157 420.657 478.657C422.157 477.157 423 475.122 423 473C423 470.878 422.157 468.844 420.657 467.343C419.157 465.843 417.122 465 415 465Z" fill="#324498"/>
<path d="M479.971 322.029C484.377 326.435 486.897 332.382 486.998 338.612C487.099 344.842 484.773 350.867 480.512 355.413L479.971 355.973L468.656 367.285C467.22 368.72 465.293 369.556 463.265 369.622C461.236 369.689 459.258 368.983 457.731 367.645L457.347 367.285L446.029 355.971C441.529 351.47 439 345.365 439 339C439 332.635 441.529 326.53 446.029 322.029C450.53 317.529 456.635 315 463 315C469.365 315 475.47 317.529 479.971 322.029ZM463 331C461.95 331 460.909 331.207 459.939 331.609C458.968 332.011 458.086 332.6 457.343 333.343C456.6 334.086 456.011 334.968 455.609 335.939C455.207 336.909 455 337.95 455 339C455 340.051 455.207 341.091 455.609 342.062C456.011 343.032 456.6 343.914 457.343 344.657C458.086 345.4 458.968 345.989 459.939 346.391C460.909 346.793 461.95 347 463 347C465.122 347 467.157 346.157 468.657 344.657C470.157 343.157 471 341.122 471 339C471 336.878 470.157 334.844 468.657 333.343C467.157 331.843 465.122 331 463 331Z" fill="#324498"/>
</svg>
