<svg width="177" height="56" viewBox="0 0 177 56" fill="none" xmlns="http://www.w3.org/2000/svg">
<g clip-path="url(#clip0_262_647)">
<mask id="mask0_262_647" style="mask-type:luminance" maskUnits="userSpaceOnUse" x="12" y="43" width="9" height="9">
<path d="M16.102 43.423C13.8017 43.7468 12.183 45.9111 12.5408 48.1777C12.8816 50.4273 15.0115 51.9781 17.2777 51.6372C19.595 51.2794 21.0944 49.2684 20.7536 46.9507C20.6173 44.9909 18.7771 43.3719 16.6813 43.3719C16.4939 43.3719 16.2894 43.3719 16.102 43.406" fill="white"/>
</mask>
<g mask="url(#mask0_262_647)">
<path d="M21.0943 43.3889H12.1829V51.9951H21.0943V43.3889Z" fill="url(#paint0_linear_262_647)"/>
</g>
<mask id="mask1_262_647" style="mask-type:luminance" maskUnits="userSpaceOnUse" x="44" y="49" width="8" height="7">
<path d="M47.5902 49.1321C46.0907 49.2173 44.5402 50.5806 44.7276 52.7961C44.8639 54.3299 46.3293 55.5228 47.8798 55.5739H48.0843C48.1865 55.5739 48.2888 55.5739 48.391 55.5399C50.2483 55.2842 51.4751 53.6652 51.2025 51.8588C50.9639 50.1887 49.5156 49.0469 48.1184 49.0469C47.931 49.0469 47.7435 49.0639 47.5561 49.115" fill="white"/>
</mask>
<g mask="url(#mask1_262_647)">
<path d="M51.4922 49.0639H44.5403V55.574H51.4922V49.0639Z" fill="url(#paint1_linear_262_647)"/>
</g>
<mask id="mask2_262_647" style="mask-type:luminance" maskUnits="userSpaceOnUse" x="14" y="10" width="7" height="7">
<path d="M17.2608 10.2422C15.642 10.4979 14.5856 12.0146 14.756 13.6677C14.9264 15.423 16.7496 16.5648 18.1809 16.241C19.8677 15.9854 21.0264 14.4346 20.7708 12.7815C20.5323 11.2988 19.1862 10.1911 17.7038 10.1911C17.5504 10.1911 17.3971 10.1911 17.2437 10.2252" fill="white"/>
</mask>
<g mask="url(#mask2_262_647)">
<path d="M21.0265 10.2082H14.5857V16.5819H21.0265V10.2082Z" fill="url(#paint2_linear_262_647)"/>
</g>
<mask id="mask3_262_647" style="mask-type:luminance" maskUnits="userSpaceOnUse" x="31" y="0" width="7" height="6">
<path d="M34.4701 0C33.0558 0.221546 32.0335 1.41449 31.9653 2.77785V3.03348C31.9653 3.13573 31.9653 3.23798 31.9994 3.34023C32.238 4.94218 33.7544 6.04991 35.3391 5.81132C36.9578 5.55569 38.0312 4.09008 37.7927 2.47109C37.5882 1.15886 36.5829 0.187462 35.3561 0L34.4701 0Z" fill="white"/>
</mask>
<g mask="url(#mask3_262_647)">
<path d="M38.0312 0H31.9653V6.06695H38.0312V0Z" fill="url(#paint3_linear_262_647)"/>
</g>
<mask id="mask4_262_647" style="mask-type:luminance" maskUnits="userSpaceOnUse" x="38" y="5" width="4" height="4">
<path d="M39.5139 5.35119C38.6789 5.48752 38.1848 5.99878 38.0996 6.76567V7.17468C38.0996 7.17468 38.0996 7.27693 38.1166 7.32806C38.1678 8.33354 39.0197 8.99817 40.0932 8.86184C41.0474 8.74254 41.6437 7.85636 41.5074 6.86792C41.3711 5.93061 40.7066 5.33414 39.8376 5.33414C39.7354 5.33414 39.6161 5.33414 39.5139 5.35119Z" fill="white"/>
</mask>
<g mask="url(#mask4_262_647)">
<path d="M41.6608 5.3171H38.0996V8.98113H41.6608V5.3171Z" fill="url(#paint4_linear_262_647)"/>
</g>
<mask id="mask5_262_647" style="mask-type:luminance" maskUnits="userSpaceOnUse" x="38" y="52" width="4" height="4">
<path d="M39.7693 52.9154C39.0707 53.0176 38.6617 53.4096 38.6106 54.0231V54.2617C38.6106 54.2617 38.6106 54.3128 38.6106 54.3469C38.6788 54.9775 39.1558 55.4717 39.7352 55.5569H40.093C40.093 55.5569 40.11 55.5569 40.1271 55.5569C40.7234 55.4546 41.1494 55.0116 41.2176 54.4492V54.0913C41.2176 54.0913 41.2176 54.0742 41.2176 54.0572C41.1153 53.3414 40.6553 52.9324 39.9908 52.9324C39.9226 52.9324 39.8374 52.9324 39.7522 52.9324" fill="white"/>
</mask>
<g mask="url(#mask5_262_647)">
<path d="M41.2176 52.8984H38.6106V55.5399H41.2176V52.8984Z" fill="url(#paint5_linear_262_647)"/>
</g>
<mask id="mask6_262_647" style="mask-type:luminance" maskUnits="userSpaceOnUse" x="0" y="8" width="69" height="48">
<path d="M54.1503 13.1053C54.0821 13.7358 54.1162 14.3664 54.1673 14.9799C54.2184 15.7468 53.9799 16.4114 53.2983 16.8545C52.9064 17.1102 52.4464 17.1783 51.9863 17.059C47.6754 12.168 41.0302 9.50943 34.1123 10.6001C24.5193 12.0998 17.6185 20.28 17.397 29.6531C16.9369 29.9769 16.3746 29.9428 15.7101 29.5167C15.25 29.227 14.8241 28.9032 14.4492 28.5113C13.8699 27.9318 13.3076 27.3183 12.7112 26.7559C10.6154 24.762 8.05954 24.2508 5.36737 24.9836C2.35145 25.8186 0.340833 28.3579 0.0170898 31.3232V33.0103C0.051168 33.3853 0.119324 33.7602 0.221559 34.1351C1.15871 37.9014 4.6858 40.2362 8.74111 39.6567C10.9051 39.35 12.609 38.2082 13.8017 36.3506C14.3981 35.4133 15.0967 34.5782 16.0338 33.9647C16.7154 33.5216 17.2436 33.5216 17.7718 33.9647C19.2713 41.5654 24.9964 47.3597 32.0847 49.2514C36.9578 50.8192 41.9673 50.308 47.0791 47.7005C48.34 47.0529 49.4305 46.1497 50.521 45.2806C51.0662 44.8545 51.5774 44.3603 52.293 44.241C53.0257 44.1047 53.4176 44.3262 53.6732 45.025C53.9629 45.8089 53.9629 46.6269 53.9458 47.4449C53.9288 48.4163 53.9458 49.3877 54.2866 50.325C55.2578 53.1369 57.2003 54.8411 60.0969 55.4035C63.1129 55.983 65.4983 54.7389 67.3556 52.4723C68.7017 50.8192 69.0765 48.8253 68.7017 46.6951C67.9349 42.3153 63.164 39.5033 58.9894 41.003C58.4271 41.2075 57.8648 41.4291 57.2855 41.5313C54.9852 41.9403 54.6104 41.395 55.2067 39.2988C55.4793 38.3445 55.8372 37.3901 56.195 36.4528C57.1833 33.7602 57.2173 30.9823 56.9617 28.2045C56.8595 27.182 56.638 26.1935 56.3483 25.2222C55.9735 23.7225 55.4112 22.2909 54.7126 20.9617C54.6615 20.7742 54.6274 20.5867 54.6274 20.3822C54.5763 19.6324 54.9511 19.1211 55.7008 18.9337C56.4676 18.7462 57.2003 18.8655 57.933 19.1041C59.5687 19.6494 61.1704 19.5131 62.6698 18.6269C64.7316 17.4169 65.771 15.0822 65.3109 12.6281C64.902 10.4297 63.0277 8.64029 60.7785 8.26537C60.4207 8.1972 60.0629 8.18016 59.7221 8.18016C56.621 8.18016 54.474 10.5831 54.2014 13.0883" fill="white"/>
</mask>
<g mask="url(#mask6_262_647)">
<path d="M69.0594 8.21424H0V56.017H69.0594V8.21424Z" fill="url(#paint6_linear_262_647)"/>
</g>
<path d="M43.0238 32.1753V28.9884C43.0238 25.2562 41.0643 23.4157 37.8439 23.4157C34.6235 23.4157 32.664 25.2562 32.664 28.9884V32.1753H43.0067H43.0238ZM44.1654 29.1077V37.9696H43.0408V33.1978H32.6981V37.9696H31.5735V29.1077C31.5735 24.6427 34.0782 22.3761 37.878 22.3761C41.6777 22.3761 44.1824 24.6257 44.1824 29.1077" fill="#F8F8FF"/>
<path d="M70.4395 31.9026C73.7621 31.9026 75.5342 30.3518 75.5342 27.6932C75.5342 25.0347 73.7621 23.4839 70.4395 23.4839H66.0093V31.8856H70.4395V31.9026ZM75.6364 37.9696L71.939 32.7888C71.4448 32.857 70.9677 32.891 70.4395 32.891H66.0093V37.9525H64.8848V22.4613H70.4395C74.3244 22.4613 76.6758 24.4041 76.6758 27.6762C76.6758 30.1302 75.3468 31.8344 73.0465 32.5161L76.9144 37.9355H75.6364V37.9696Z" fill="#0B1215"/>
<path d="M107.619 32.1753V28.9884C107.619 25.2562 105.659 23.4157 102.439 23.4157C99.2186 23.4157 97.2592 25.2562 97.2592 28.9884V32.1753H107.602H107.619ZM108.744 29.1077V37.9696H107.619V33.1978H97.2762V37.9696H96.1516V29.1077C96.1516 24.6427 98.6564 22.3761 102.456 22.3761C106.256 22.3761 108.761 24.6257 108.761 29.1077" fill="#0B1215"/>
<path d="M140.521 30.3007H141.612V37.9696H140.59V36.4187C139.278 37.5435 137.557 38.0718 135.751 38.0718C131.763 38.0718 127.981 35.2769 127.981 30.2325C127.981 25.6993 131.406 22.3591 136.091 22.3591C138.323 22.3591 140.3 23.0578 141.663 24.4893L140.947 25.2392C139.601 23.9099 137.983 23.3987 136.108 23.3987C132.087 23.3987 129.088 26.3128 129.088 30.2325C129.088 34.5612 132.36 37.0493 135.785 37.0493C137.471 37.0493 139.192 36.4699 140.487 35.1917V30.2836L140.521 30.3007Z" fill="#0B1215"/>
<path d="M175.486 30.2325C175.486 26.3128 172.521 23.4157 168.585 23.4157C164.649 23.4157 161.667 26.3128 161.667 30.2325C161.667 34.1522 164.632 37.0493 168.585 37.0493C172.538 37.0493 175.486 34.1522 175.486 30.2325ZM160.542 30.2325C160.542 25.7505 163.967 22.3761 168.585 22.3761C173.203 22.3761 176.627 25.7164 176.627 30.2325C176.627 34.7486 173.168 38.0889 168.585 38.0889C164.001 38.0889 160.542 34.7316 160.542 30.2325Z" fill="#0B1215"/>
<path d="M74.9209 44.7523C75.2958 44.7523 75.5854 44.6671 75.7899 44.4967C75.9944 44.3262 76.0796 44.0876 76.0796 43.7979C76.0796 43.4912 75.9773 43.2526 75.7729 43.0822C75.5684 42.9117 75.2787 42.8436 74.938 42.8436H74.1201V44.7523H74.938H74.9209ZM74.9209 42.5198C75.398 42.5198 75.7558 42.622 76.0114 42.8606C76.267 43.0822 76.4033 43.406 76.4033 43.7979C76.4033 44.1899 76.267 44.4967 76.0114 44.7352C75.7558 44.9568 75.381 45.0761 74.9209 45.0761H74.103V46.5928H73.7793V42.5368H74.938L74.9209 42.5198Z" fill="#0B1215"/>
<path d="M78.3117 44.7182C78.6866 44.7182 78.9592 44.633 79.1637 44.4626C79.3511 44.2921 79.4534 44.0706 79.4534 43.7809C79.4534 43.4741 79.3511 43.2526 79.1467 43.0822C78.9422 42.9117 78.6696 42.8436 78.3117 42.8436H77.4768V44.7182H78.3117ZM79.5386 46.5928L78.5673 45.0079C78.4821 45.0079 78.3799 45.0079 78.2947 45.0079H77.4768V46.5758H77.1531V42.5198H78.3117C78.5503 42.5198 78.7548 42.5539 78.9422 42.605C79.1296 42.6561 79.283 42.7413 79.4193 42.8606C79.5386 42.9799 79.6408 43.0992 79.7089 43.2696C79.7771 43.423 79.8112 43.6105 79.8112 43.7979C79.8112 44.0876 79.743 44.3433 79.5726 44.5478C79.4193 44.7523 79.1978 44.8886 78.9251 44.9738L79.9305 46.6269H79.5556L79.5386 46.5928Z" fill="#0B1215"/>
<path d="M80.7995 44.5648C80.7995 44.8204 80.8506 45.0761 80.9358 45.2976C81.021 45.5192 81.1573 45.7066 81.3106 45.86C81.464 46.0134 81.6514 46.1327 81.8729 46.2179C82.0944 46.3031 82.316 46.3542 82.5715 46.3542C82.8271 46.3542 83.0486 46.3031 83.2701 46.2179C83.4916 46.1327 83.6791 46.0134 83.8324 45.843C83.9858 45.6896 84.1221 45.5021 84.2073 45.2806C84.2925 45.059 84.3436 44.8204 84.3436 44.5478C84.3436 44.2751 84.2925 44.0365 84.2073 43.815C84.1221 43.5934 83.9858 43.406 83.8324 43.2526C83.6791 43.0992 83.4916 42.9799 83.2701 42.8947C83.0486 42.8095 82.8271 42.7584 82.5715 42.7584C82.316 42.7584 82.0944 42.7925 81.8729 42.8777C81.6514 42.9629 81.464 43.0822 81.3106 43.2526C81.1573 43.406 81.038 43.5934 80.9358 43.815C80.8506 44.0365 80.7995 44.2751 80.7995 44.5478V44.5648ZM80.4417 44.5819C80.4417 44.2751 80.4928 43.9854 80.612 43.7298C80.7313 43.4741 80.8676 43.2355 81.0721 43.0651C81.2595 42.8777 81.4981 42.7413 81.7537 42.622C82.0092 42.5198 82.2819 42.4687 82.5715 42.4687C82.8612 42.4687 83.1338 42.5198 83.3894 42.622C83.645 42.7243 83.8665 42.8777 84.0539 43.0651C84.2414 43.2526 84.3947 43.4741 84.514 43.7298C84.6333 43.9854 84.6844 44.2751 84.6844 44.5819C84.6844 44.8886 84.6333 45.1783 84.531 45.434C84.4118 45.6896 84.2754 45.9111 84.071 46.0986C83.8835 46.2861 83.645 46.4224 83.4065 46.5417C83.1509 46.6439 82.8782 46.6951 82.5886 46.6951C82.2989 46.6951 82.0263 46.6439 81.7707 46.5417C81.5151 46.4394 81.2936 46.2861 81.1062 46.0986C80.9187 45.9111 80.7654 45.6896 80.6632 45.434C80.5439 45.1783 80.4928 44.8886 80.4928 44.5819H80.4757H80.4417Z" fill="#0B1215"/>
<path d="M87.2402 46.269C87.4617 46.269 87.6832 46.2349 87.9047 46.1668C88.1092 46.0816 88.2966 45.9793 88.45 45.8259C88.6033 45.6896 88.7396 45.5021 88.8248 45.2976C88.91 45.0931 88.9611 44.8545 88.9611 44.5989C88.9611 44.3433 88.91 44.0876 88.8248 43.8661C88.7396 43.6446 88.6033 43.4741 88.45 43.3208C88.2796 43.1674 88.1092 43.0481 87.8877 42.9799C87.6832 42.8947 87.4447 42.8606 87.2061 42.8606H85.843V46.2861H87.2402V46.269ZM87.1891 42.5198C87.4787 42.5198 87.7514 42.5879 88.0069 42.6902C88.2625 42.7925 88.484 42.9288 88.6715 43.0992C88.8589 43.2867 89.0123 43.4912 89.1145 43.7468C89.2338 44.0024 89.2849 44.2751 89.2849 44.5819C89.2849 44.8886 89.2338 45.1442 89.1315 45.3999C89.0123 45.6555 88.8759 45.86 88.6885 46.0304C88.5011 46.2009 88.2796 46.3372 88.041 46.4394C87.7854 46.5417 87.5299 46.5758 87.2402 46.5758H85.5022V42.5198H87.1891Z" fill="#0B1215"/>
<path d="M93.272 42.5198V44.9397C93.272 45.5021 93.1357 45.9282 92.8631 46.2349C92.5905 46.5246 92.1815 46.678 91.6533 46.678C91.1251 46.678 90.7162 46.5246 90.4265 46.2349C90.1539 45.9452 90.0176 45.5021 90.0176 44.9397V42.5198H90.3413V44.9397C90.3413 45.8771 90.7673 46.3372 91.6363 46.3372C92.5053 46.3372 92.9313 45.86 92.9313 44.9397V42.5198H93.272Z" fill="#0B1215"/>
<path d="M97.5828 43.5934H97.5488C97.3954 43.3548 97.1909 43.1503 96.9183 43.014C96.6457 42.8606 96.356 42.7925 96.0323 42.7925C95.7767 42.7925 95.5552 42.8265 95.3337 42.9288C95.1122 43.014 94.9247 43.1333 94.7714 43.2867C94.618 43.44 94.4988 43.6275 94.3965 43.8491C94.3113 44.0706 94.2602 44.3092 94.2602 44.5819C94.2602 44.8545 94.3113 45.0761 94.3965 45.2976C94.4817 45.5192 94.618 45.7066 94.7714 45.86C94.9247 46.0134 95.1122 46.1327 95.3337 46.2349C95.5552 46.3201 95.7767 46.3542 96.0323 46.3542C96.3731 46.3542 96.6968 46.269 96.9694 46.0986C97.2421 45.9282 97.4636 45.7066 97.6169 45.4169L97.9407 45.5021C97.8555 45.6896 97.7532 45.843 97.6169 45.9963C97.4976 46.1497 97.3443 46.269 97.1739 46.3542C97.0035 46.4565 96.8331 46.5246 96.6457 46.5758C96.4583 46.6269 96.2538 46.661 96.0323 46.661C95.7426 46.661 95.47 46.6099 95.2144 46.5076C94.9588 46.4054 94.7373 46.252 94.5499 46.0645C94.3625 45.8771 94.2091 45.6555 94.0898 45.3999C93.9706 45.1442 93.9194 44.8545 93.9194 44.5478C93.9194 44.241 93.9876 43.9513 94.0898 43.6957C94.1921 43.44 94.3454 43.2015 94.5328 43.014C94.7203 42.8265 94.9418 42.6902 95.2144 42.5709C95.47 42.4687 95.7426 42.4175 96.0323 42.4175C96.2368 42.4175 96.4242 42.4346 96.6116 42.4857C96.799 42.5368 96.9694 42.605 97.1228 42.7072C97.2761 42.7925 97.4295 42.9117 97.5488 43.031C97.6851 43.1674 97.7873 43.3037 97.8725 43.4741L97.5317 43.5593L97.5828 43.5934Z" fill="#0B1215"/>
<path d="M101.366 46.269V46.5928H98.6904V42.5198H101.331V42.8436H99.0312V44.2581H100.888V44.5648H99.0312V46.269H101.366Z" fill="#0B1215"/>
<path d="M105.523 42.5198V46.6099H105.216L103.138 43.832C102.967 43.5934 102.831 43.406 102.746 43.2867C102.661 43.1674 102.609 43.0992 102.609 43.0992V46.6099H102.286V42.5539H102.592L104.654 45.3317C104.807 45.5533 104.944 45.7237 105.029 45.86C105.114 45.9963 105.182 46.0645 105.182 46.0645V45.9793C105.182 45.9793 105.182 45.843 105.182 45.7578C105.182 45.6725 105.182 45.5533 105.182 45.434V42.5709H105.523V42.5198Z" fill="#0B1215"/>
<path d="M109.34 42.5198V42.8436H107.96V46.5928H107.619V42.8436H106.222V42.5198H109.34Z" fill="#0B1215"/>
<path d="M114.826 43.5934H114.792C114.639 43.3548 114.435 43.1503 114.162 43.014C113.889 42.8606 113.6 42.7925 113.276 42.7925C113.02 42.7925 112.799 42.8265 112.577 42.9288C112.356 43.014 112.168 43.1333 112.015 43.2867C111.862 43.44 111.742 43.6275 111.64 43.8491C111.555 44.0706 111.504 44.3092 111.504 44.5819C111.504 44.8545 111.555 45.0761 111.64 45.2976C111.725 45.5192 111.862 45.7066 112.015 45.86C112.168 46.0134 112.356 46.1327 112.577 46.2349C112.799 46.3201 113.02 46.3542 113.276 46.3542C113.617 46.3542 113.94 46.269 114.213 46.0986C114.486 45.9282 114.707 45.7066 114.861 45.4169L115.184 45.5021C115.099 45.6896 114.997 45.843 114.861 45.9963C114.741 46.1497 114.588 46.269 114.418 46.3542C114.247 46.4565 114.077 46.5246 113.889 46.5758C113.702 46.6269 113.497 46.661 113.276 46.661C112.986 46.661 112.714 46.6099 112.458 46.5076C112.202 46.4054 111.981 46.252 111.794 46.0645C111.606 45.8771 111.453 45.6555 111.333 45.3999C111.214 45.1442 111.163 44.8545 111.163 44.5478C111.163 44.241 111.231 43.9513 111.333 43.6957C111.436 43.44 111.589 43.2015 111.776 43.014C111.964 42.8265 112.185 42.6902 112.458 42.5709C112.714 42.4687 112.986 42.4175 113.276 42.4175C113.48 42.4175 113.668 42.4346 113.855 42.4857C114.043 42.5368 114.213 42.605 114.366 42.7072C114.52 42.7925 114.673 42.9117 114.792 43.031C114.929 43.1674 115.031 43.3037 115.116 43.4741L114.775 43.5593L114.826 43.5934Z" fill="#0B1215"/>
<path d="M119.018 42.5198V46.5928H118.677V44.6159H116.258V46.5928H115.934V42.5198H116.258V44.3092H118.677V42.5198H119.018Z" fill="#0B1215"/>
<path d="M122.818 46.269V46.5928H120.143V42.5198H122.784V42.8436H120.466V44.2581H122.341V44.5648H120.466V46.269H122.818Z" fill="#0B1215"/>
<path d="M127.384 42.5198V46.6099H127.043V44.5478C127.043 44.4114 127.043 44.2581 127.043 44.0876C127.043 43.9172 127.043 43.7638 127.043 43.6105C127.043 43.4571 127.043 43.3378 127.043 43.2526V43.0992L127.009 43.1503C127.009 43.1503 126.958 43.2355 126.924 43.2867C126.89 43.3378 126.856 43.406 126.822 43.4912C126.771 43.5593 126.737 43.6445 126.703 43.7127L125.629 45.5873H125.459L124.368 43.7127C124.368 43.7127 124.283 43.5593 124.249 43.4912C124.215 43.406 124.181 43.3548 124.147 43.2867C124.113 43.2355 124.079 43.1844 124.062 43.1503L124.028 43.0992V43.2526C124.028 43.3548 124.028 43.4741 124.028 43.6275C124.028 43.7809 124.028 43.9343 124.028 44.1047C124.028 44.2751 124.028 44.4285 124.028 44.5648V46.6269H123.687V42.5709H123.993L125.067 44.4285C125.152 44.5819 125.237 44.7182 125.288 44.8204C125.34 44.9227 125.391 45.0079 125.425 45.0761C125.459 45.1442 125.476 45.1783 125.493 45.1954L125.527 45.2295V45.1954C125.527 45.1954 125.578 45.1272 125.612 45.059C125.646 44.9909 125.697 44.9057 125.749 44.8034C125.8 44.7012 125.885 44.5648 125.97 44.4114L127.043 42.5539H127.35L127.384 42.5198Z" fill="#0B1215"/>
<path d="M128.85 42.5198H128.526V46.5758H128.85V42.5198Z" fill="#0B1215"/>
<path d="M130.315 42.5198H129.991V46.5758H130.315V42.5198Z" fill="#0B1215"/>
<path d="M134.472 46.2861C134.609 46.2861 134.745 46.269 134.864 46.2349C134.984 46.2009 135.086 46.1327 135.171 46.0645C135.256 45.9964 135.324 45.8941 135.375 45.7919C135.427 45.6896 135.444 45.5533 135.444 45.4169C135.444 45.2976 135.41 45.1783 135.358 45.059C135.307 44.9398 135.222 44.8545 135.137 44.7864C135.052 44.7182 134.932 44.65 134.813 44.5989C134.694 44.5478 134.575 44.5307 134.421 44.5307H133.229V46.3031H134.472V46.2861ZM134.285 44.241C134.421 44.241 134.541 44.241 134.66 44.1899C134.779 44.1558 134.864 44.1047 134.932 44.0365C135.001 43.9684 135.069 43.9002 135.103 43.815C135.154 43.7298 135.171 43.6275 135.171 43.5423C135.171 43.3378 135.086 43.1503 134.932 43.031C134.779 42.9118 134.558 42.8436 134.285 42.8436H133.229V44.2581H134.285V44.241ZM134.353 42.5368C134.524 42.5368 134.694 42.5368 134.83 42.588C134.984 42.6391 135.103 42.7072 135.188 42.7925C135.29 42.8777 135.376 42.9799 135.427 43.0992C135.478 43.2185 135.512 43.3548 135.512 43.5082C135.512 43.6105 135.495 43.7127 135.444 43.7979C135.393 43.8831 135.341 43.9854 135.273 44.0536C135.205 44.1217 135.137 44.1899 135.052 44.241C134.967 44.2922 134.881 44.3092 134.796 44.3262C134.898 44.3433 135.001 44.3774 135.12 44.4285C135.239 44.4796 135.341 44.5478 135.444 44.633C135.546 44.7182 135.631 44.8375 135.699 44.9738C135.767 45.0931 135.801 45.2465 135.801 45.3999C135.801 45.5873 135.767 45.7407 135.716 45.8941C135.648 46.0304 135.563 46.1668 135.461 46.269C135.358 46.3713 135.205 46.4565 135.052 46.5076C134.898 46.5587 134.711 46.5928 134.507 46.5928H132.922V42.5368H134.37H134.353Z" fill="#0B1215"/>
<path d="M139.772 42.5198V44.9397C139.772 45.5021 139.635 45.9282 139.363 46.2349C139.09 46.5246 138.681 46.678 138.153 46.678C137.625 46.678 137.216 46.5246 136.926 46.2349C136.654 45.9452 136.517 45.5021 136.517 44.9397V42.5198H136.841V44.9397C136.841 45.8771 137.267 46.3372 138.136 46.3372C139.005 46.3372 139.431 45.86 139.431 44.9397V42.5198H139.772Z" fill="#0B1215"/>
<path d="M142.515 46.269C142.736 46.269 142.958 46.2349 143.179 46.1668C143.384 46.0816 143.571 45.9793 143.725 45.8259C143.878 45.6896 144.014 45.5021 144.1 45.2976C144.185 45.0931 144.236 44.8545 144.236 44.5989C144.236 44.3433 144.185 44.0876 144.1 43.8661C144.014 43.6446 143.878 43.4741 143.725 43.3208C143.554 43.1674 143.384 43.0481 143.162 42.9799C142.958 42.8947 142.719 42.8606 142.481 42.8606H141.118V46.2861H142.515V46.269ZM142.464 42.5198C142.753 42.5198 143.026 42.5879 143.282 42.6902C143.537 42.7925 143.759 42.9288 143.946 43.0992C144.134 43.2867 144.287 43.4912 144.406 43.7468C144.526 44.0024 144.577 44.2751 144.577 44.5819C144.577 44.8886 144.526 45.1442 144.423 45.3999C144.304 45.6555 144.168 45.86 143.98 46.0304C143.793 46.2009 143.571 46.3372 143.333 46.4394C143.077 46.5417 142.822 46.5758 142.532 46.5758H140.794V42.5198H142.481H142.464Z" fill="#0B1215"/>
<path d="M145.429 44.5648C145.429 44.8204 145.48 45.0761 145.565 45.2976C145.667 45.5192 145.786 45.7066 145.94 45.86C146.093 46.0134 146.281 46.1327 146.502 46.2179C146.724 46.3031 146.945 46.3542 147.201 46.3542C147.456 46.3542 147.678 46.3031 147.899 46.2179C148.121 46.1327 148.308 46.0134 148.462 45.843C148.615 45.6896 148.751 45.5021 148.836 45.2806C148.922 45.059 148.973 44.8204 148.973 44.5478C148.973 44.2751 148.922 44.0365 148.836 43.815C148.751 43.5934 148.615 43.406 148.462 43.2526C148.308 43.0992 148.121 42.9799 147.899 42.8947C147.678 42.8095 147.456 42.7584 147.201 42.7584C146.945 42.7584 146.724 42.7924 146.502 42.8777C146.281 42.9629 146.093 43.0822 145.94 43.2526C145.786 43.406 145.667 43.5934 145.565 43.815C145.48 44.0365 145.429 44.2751 145.429 44.5478V44.5648ZM145.071 44.5819C145.071 44.2751 145.122 43.9854 145.241 43.7298C145.36 43.4741 145.497 43.2355 145.701 43.0651C145.889 42.8777 146.127 42.7413 146.383 42.622C146.638 42.5198 146.911 42.4687 147.201 42.4687C147.49 42.4687 147.763 42.5198 148.019 42.622C148.274 42.7243 148.496 42.8777 148.683 43.0651C148.871 43.2526 149.024 43.4741 149.143 43.7298C149.262 43.9854 149.314 44.2751 149.314 44.5819C149.314 44.8886 149.262 45.1783 149.16 45.434C149.041 45.6896 148.905 45.9111 148.717 46.0986C148.53 46.2861 148.291 46.4224 148.036 46.5417C147.78 46.6439 147.507 46.6951 147.218 46.6951C146.928 46.6951 146.655 46.6439 146.4 46.5417C146.144 46.4394 145.923 46.2861 145.735 46.0986C145.548 45.9111 145.395 45.6896 145.292 45.434C145.173 45.1783 145.122 44.8886 145.122 44.5819H145.105H145.071Z" fill="#0B1215"/>
<path d="M154.988 42.5198L153.573 46.5758H153.301L152.602 44.3774C152.551 44.224 152.517 44.0876 152.483 43.9854C152.449 43.8831 152.432 43.7979 152.415 43.7298C152.415 43.6616 152.381 43.6105 152.381 43.5934C152.381 43.5934 152.346 43.6616 152.329 43.7298C152.329 43.7979 152.295 43.8661 152.261 43.9854C152.227 44.0876 152.193 44.224 152.142 44.3774L151.443 46.5928H151.154L149.74 42.5368H150.08L151.12 45.5021C151.171 45.6726 151.205 45.8089 151.239 45.9282C151.273 46.0304 151.29 46.0816 151.29 46.0816C151.29 46.0816 151.307 46.0304 151.341 45.9282C151.358 45.8259 151.392 45.6896 151.46 45.5021L152.227 43.1163H152.5L153.267 45.5021C153.318 45.6726 153.352 45.8089 153.386 45.9282C153.403 46.0304 153.437 46.0816 153.437 46.0816C153.437 46.0816 153.454 46.0304 153.488 45.9282C153.522 45.8259 153.556 45.6896 153.624 45.5021L154.647 42.5368H154.988V42.5198Z" fill="#0B1215"/>
<path d="M158.293 46.269V46.5928H155.703V42.5198H156.027V46.269H158.293Z" fill="#0B1215"/>
<path d="M161.428 45.1102L160.679 43.406C160.679 43.406 160.628 43.3037 160.611 43.2355C160.593 43.1844 160.559 43.1162 160.542 43.0822C160.525 43.031 160.525 42.997 160.508 42.9629V42.9117H160.491V42.9458C160.491 42.9458 160.457 43.014 160.44 43.0651C160.423 43.1162 160.406 43.1674 160.372 43.2185C160.355 43.2696 160.321 43.3378 160.304 43.3889L159.554 45.0931H161.428V45.1102ZM161.565 45.4169H159.418L158.907 46.5928H158.532L160.338 42.5368H160.628L162.434 46.5928H162.076L161.565 45.4169Z" fill="#0B1215"/>
<path d="M166.37 42.5198V46.6099H166.063L163.984 43.832C163.814 43.5934 163.678 43.406 163.592 43.2867C163.507 43.1674 163.456 43.0992 163.456 43.0992V46.6099H163.132V42.5539H163.439L165.501 45.3317C165.654 45.5533 165.79 45.7237 165.876 45.86C165.961 45.9963 166.029 46.0645 166.029 46.0645V45.9793C166.029 45.9793 166.029 45.843 166.029 45.7578C166.029 45.6725 166.029 45.5533 166.029 45.434V42.5709H166.37V42.5198Z" fill="#0B1215"/>
<path d="M170.17 46.269V46.5928H167.494V42.5198H170.135V42.8436H167.818V44.2581H169.692V44.5648H167.818V46.269H170.17Z" fill="#0B1215"/>
<path d="M173.833 42.5198V44.9397C173.833 45.2124 173.799 45.434 173.731 45.6555C173.662 45.8771 173.56 46.0475 173.407 46.2009C173.271 46.3542 173.1 46.4735 172.879 46.5417C172.674 46.6099 172.436 46.661 172.163 46.661C171.976 46.661 171.788 46.6269 171.618 46.5758C171.447 46.5246 171.294 46.4565 171.158 46.3542C171.021 46.269 170.902 46.1497 170.817 46.0304C170.715 45.8941 170.647 45.7578 170.595 45.6044L170.936 45.5192C171.021 45.7748 171.175 45.9793 171.396 46.1327C171.618 46.2861 171.873 46.3372 172.163 46.3372C172.606 46.3372 172.93 46.2179 173.151 45.9623C173.373 45.7066 173.492 45.3658 173.492 44.9397V42.5027H173.833V42.5198Z" fill="#0B1215"/>
</g>
<defs>
<linearGradient id="paint0_linear_262_647" x1="21.4944" y1="43.3081" x2="21.4944" y2="51.6706" gradientUnits="userSpaceOnUse">
<stop stop-color="#36A9E1"/>
<stop offset="1" stop-color="#312783"/>
</linearGradient>
<linearGradient id="paint1_linear_262_647" x1="50.8107" y1="49.0128" x2="50.8107" y2="55.574" gradientUnits="userSpaceOnUse">
<stop stop-color="#36A9E1"/>
<stop offset="1" stop-color="#312783"/>
</linearGradient>
<linearGradient id="paint2_linear_262_647" x1="18.2975" y1="10.1904" x2="18.2975" y2="16.3221" gradientUnits="userSpaceOnUse">
<stop stop-color="#36A9E1"/>
<stop offset="1" stop-color="#312783"/>
</linearGradient>
<linearGradient id="paint3_linear_262_647" x1="30.6288" y1="0.0409008" x2="30.6288" y2="5.95788" gradientUnits="userSpaceOnUse">
<stop stop-color="#36A9E1"/>
<stop offset="1" stop-color="#312783"/>
</linearGradient>
<linearGradient id="paint4_linear_262_647" x1="34.9947" y1="5.34914" x2="34.9947" y2="8.91007" gradientUnits="userSpaceOnUse">
<stop stop-color="#36A9E1"/>
<stop offset="1" stop-color="#312783"/>
</linearGradient>
<linearGradient id="paint5_linear_262_647" x1="38.3789" y1="52.9904" x2="38.3789" y2="55.5862" gradientUnits="userSpaceOnUse">
<stop stop-color="#36A9E1"/>
<stop offset="1" stop-color="#312783"/>
</linearGradient>
<linearGradient id="paint6_linear_262_647" x1="40.49" y1="8.84309" x2="40.49" y2="55.1394" gradientUnits="userSpaceOnUse">
<stop stop-color="#36A9E1"/>
<stop offset="1" stop-color="#312783"/>
</linearGradient>
<clipPath id="clip0_262_647">
<rect width="176.644" height="56" fill="white"/>
</clipPath>
</defs>
</svg>
